<svg xmlns="http://www.w3.org/2000/svg" width="441.32" height="202.916" viewBox="0 0 330.99 152.187"><path fill="none" stroke="currentColor" stroke-miterlimit="10" stroke-width=".79276793" d="M44.246 114.172v-28.2h28.2v28.2Zm0 0"/><path fill="none" stroke="currentColor" stroke-miterlimit="10" stroke-opacity=".3" stroke-width=".39688131" d="M53.645 114.172v-28.2"/><path fill="none" stroke="currentColor" stroke-miterlimit="10" stroke-opacity=".3" stroke-width=".39688131" d="M44.246 104.773h28.2"/><path fill="none" stroke="currentColor" stroke-miterlimit="10" stroke-opacity=".3" stroke-width=".39688131" d="M63.043 114.172v-28.2"/><path fill="none" stroke="currentColor" stroke-miterlimit="10" stroke-opacity=".3" stroke-width=".39688131" d="M44.246 95.371h28.2"/><path fill="#2b7fd6" fill-opacity=".805" d="M52.145 107.121a2.256 2.256 0 0 0-4.512 0 2.256 2.256 0 0 0 4.512 0M62.012 90.203a2.256 2.256 0 0 0-4.512 0 2.256 2.256 0 0 0 4.512 0M70.469 105.71a2.256 2.256 0 1 0-4.512.003 2.256 2.256 0 0 0 4.512-.002M54.96 98.664a2.256 2.256 0 1 0-4.51-.004 2.256 2.256 0 0 0 4.51.004m0 0"/><path fill="#c0392b" d="M68.215 91.613a2.82 2.82 0 0 0-2.82-2.82 2.82 2.82 0 0 0-2.82 2.82 2.82 2.82 0 0 0 2.82 2.82 2.82 2.82 0 0 0 2.82-2.82m0 0"/><path fill="currentColor" d="M44 123.482c-.173-.36-.454-.625-.907-.625-1.156 0-2.39 1.453-2.39 2.906 0 .922.546 1.578 1.327 1.578.188 0 .688-.046 1.282-.75.078.422.422.75.906.75.344 0 .578-.234.734-.546.157-.36.297-.954.297-.985 0-.094-.094-.094-.125-.094-.094 0-.11.047-.14.172-.172.656-.344 1.235-.75 1.235-.266 0-.297-.25-.297-.454 0-.218.015-.296.125-.734.11-.422.14-.516.218-.89l.36-1.391c.062-.281.062-.297.062-.328 0-.172-.109-.281-.28-.281-.235 0-.392.218-.423.437m-.641 2.578c-.047.172-.047.188-.188.36-.437.546-.844.703-1.125.703-.5 0-.64-.547-.64-.938 0-.484.328-1.703.546-2.156.313-.594.75-.953 1.157-.953.64 0 .78.812.78.875 0 .047-.015.11-.03.156ZM55.117 123.998c.141 0 .329 0 .329-.204s-.188-.203-.329-.203H49.18c-.125 0-.313 0-.313.204s.188.203.329.203Zm0 1.921c.141 0 .329 0 .329-.203s-.188-.203-.329-.203h-5.921c-.141 0-.329 0-.329.203s.188.204.313.204ZM63.33 124.06c0-.797-.062-1.578-.406-2.312-.453-.954-1.266-1.11-1.672-1.11-.61 0-1.328.25-1.735 1.172-.312.688-.359 1.453-.359 2.25 0 .75.031 1.64.438 2.39.437.798 1.156 1 1.64 1 .532 0 1.282-.202 1.719-1.156.313-.671.375-1.453.375-2.234m-2.094 3.172c-.39 0-.968-.25-1.156-1.203-.11-.594-.11-1.5-.11-2.078 0-.64 0-1.297.079-1.828.187-1.188.937-1.266 1.187-1.266.328 0 .985.172 1.172 1.156.094.547.094 1.313.094 1.938 0 .734 0 1.406-.11 2.047-.14.937-.718 1.234-1.156 1.234M65.629 126.7a.524.524 0 1 0-1.048.017.524.524 0 0 0 1.048-.016m0 0"/><g fill="currentColor"><path d="m67.74 126.466 1.048-1.015c1.547-1.375 2.14-1.906 2.14-2.89 0-1.142-.89-1.923-2.109-1.923-1.11 0-1.844.906-1.844 1.797 0 .547.485.547.516.547a.516.516 0 0 0 .515-.531c0-.25-.171-.516-.515-.516-.078 0-.11 0-.14.016.234-.64.765-1.016 1.343-1.016.906 0 1.328.813 1.328 1.625 0 .781-.5 1.578-1.047 2.188l-1.89 2.125c-.11.109-.11.125-.11.359h3.672l.281-1.719h-.25c-.047.297-.125.735-.218.875-.079.078-.72.078-.938.078ZM75.883 125.248c0-1.188-.812-2.172-1.89-2.172-.47 0-.891.156-1.25.5v-1.938c.187.063.515.14.843.14 1.22 0 1.907-.905 1.907-1.03 0-.063-.032-.11-.094-.11-.016 0-.031 0-.078.031-.203.079-.688.282-1.36.282-.39 0-.843-.063-1.312-.281-.078-.032-.094-.032-.125-.032-.094 0-.094.078-.094.25v2.922c0 .188 0 .266.14.266.063 0 .094-.031.126-.094.11-.156.484-.687 1.281-.687.516 0 .766.453.844.624.156.376.172.75.172 1.25 0 .344 0 .938-.235 1.36-.234.39-.61.64-1.062.64-.719 0-1.282-.515-1.453-1.109.03.016.062.016.171.016.329 0 .485-.235.485-.485 0-.234-.156-.484-.485-.484-.14 0-.484.078-.484.531 0 .844.672 1.813 1.781 1.813a2.194 2.194 0 0 0 2.172-2.203m0 0"/></g><path fill="none" stroke="currentColor" stroke-miterlimit="10" stroke-width=".79276793" d="M95 114.172V57.777h56.395v56.395Zm0 0"/><path fill="none" stroke="currentColor" stroke-miterlimit="10" stroke-opacity=".3" stroke-width=".39688131" d="M113.797 114.172V57.777"/><path fill="none" stroke="currentColor" stroke-miterlimit="10" stroke-opacity=".3" stroke-width=".39688131" d="M95 95.371h56.395"/><path fill="none" stroke="currentColor" stroke-miterlimit="10" stroke-opacity=".3" stroke-width=".39688131" d="M132.594 114.172V57.777"/><path fill="none" stroke="currentColor" stroke-miterlimit="10" stroke-opacity=".3" stroke-width=".39688131" d="M95 76.574h56.395"/><path fill="#2b7fd6" fill-opacity=".805" d="M108.535 100.07a2.26 2.26 0 0 0-2.258-2.254 2.257 2.257 0 0 0-2.254 2.254 2.26 2.26 0 0 0 2.254 2.258 2.26 2.26 0 0 0 2.258-2.258M128.273 66.234a2.255 2.255 0 0 0-4.512 0 2.256 2.256 0 1 0 4.512 0M145.191 97.254a2.256 2.256 0 1 0-4.512-.004 2.256 2.256 0 0 0 4.512.004M114.176 83.152a2.255 2.255 0 0 0-4.512 0 2.256 2.256 0 1 0 4.512 0m0 0"/><path fill="#c0392b" d="M134.477 75.824a2.82 2.82 0 0 0-2.82-2.82 2.82 2.82 0 0 0-2.821 2.82 2.82 2.82 0 0 0 2.82 2.82 2.82 2.82 0 0 0 2.82-2.82m0 0"/><path fill="currentColor" d="M111.328 123.482c-.172-.36-.454-.625-.907-.625-1.156 0-2.39 1.453-2.39 2.906 0 .922.546 1.578 1.328 1.578.187 0 .687-.046 1.281-.75.078.422.422.75.906.75.344 0 .578-.234.735-.546.156-.36.296-.954.296-.985 0-.094-.093-.094-.124-.094-.094 0-.11.047-.141.172-.172.656-.344 1.235-.75 1.235-.266 0-.297-.25-.297-.454 0-.218.016-.296.125-.734.11-.422.14-.516.219-.89l.36-1.391c.062-.281.062-.297.062-.328 0-.172-.11-.281-.282-.281-.234 0-.39.218-.421.437m-.641 2.578c-.047.172-.047.188-.188.36-.437.546-.843.703-1.125.703-.5 0-.64-.547-.64-.938 0-.484.328-1.703.547-2.156.312-.594.75-.953 1.156-.953.64 0 .781.812.781.875 0 .047-.016.11-.031.156ZM122.446 123.998c.14 0 .328 0 .328-.204s-.188-.203-.329-.203h-5.937c-.125 0-.312 0-.312.204s.187.203.328.203Zm0 1.921c.14 0 .328 0 .328-.203s-.188-.203-.329-.203h-5.921c-.141 0-.329 0-.329.203s.188.204.313.204ZM130.649 124.06c0-.797-.063-1.578-.407-2.312-.453-.954-1.265-1.11-1.672-1.11-.609 0-1.328.25-1.734 1.172-.312.688-.36 1.453-.36 2.25 0 .75.032 1.64.438 2.39.438.798 1.156 1 1.64 1 .532 0 1.282-.202 1.72-1.156.312-.671.375-1.453.375-2.234m-2.094 3.172c-.39 0-.969-.25-1.157-1.203-.109-.594-.109-1.5-.109-2.078 0-.64 0-1.297.078-1.828.188-1.188.938-1.266 1.188-1.266.328 0 .984.172 1.172 1.156.093.547.093 1.313.093 1.938 0 .734 0 1.406-.109 2.047-.14.937-.719 1.234-1.156 1.234M132.947 126.7a.524.524 0 1 0-1.047.017.524.524 0 0 0 1.047-.016M138.247 125.248c0-1.188-.812-2.172-1.89-2.172-.47 0-.891.156-1.25.5v-1.938c.187.063.515.14.843.14 1.219 0 1.907-.905 1.907-1.03 0-.063-.032-.11-.094-.11-.016 0-.031 0-.078.031-.203.079-.688.282-1.36.282-.39 0-.843-.063-1.312-.281-.078-.032-.094-.032-.125-.032-.094 0-.094.078-.094.25v2.922c0 .188 0 .266.14.266.063 0 .094-.031.126-.094.109-.156.484-.687 1.28-.687.517 0 .767.453.845.624.156.376.172.75.172 1.25 0 .344 0 .938-.235 1.36-.234.39-.61.64-1.062.64-.72 0-1.282-.515-1.453-1.109.03.016.062.016.171.016.329 0 .485-.235.485-.485 0-.234-.156-.484-.485-.484-.14 0-.484.078-.484.531 0 .844.672 1.813 1.781 1.813a2.194 2.194 0 0 0 2.172-2.203m0 0"/><path fill="none" stroke="currentColor" stroke-miterlimit="10" stroke-width=".79276793" d="M173.95 114.172V1.387h112.784v112.785Zm0 0"/><path fill="none" stroke="currentColor" stroke-miterlimit="10" stroke-opacity=".3" stroke-width=".39688131" d="M211.547 114.172V1.387"/><path fill="none" stroke="currentColor" stroke-miterlimit="10" stroke-opacity=".3" stroke-width=".39688131" d="M173.95 76.574h112.784"/><path fill="none" stroke="currentColor" stroke-miterlimit="10" stroke-opacity=".3" stroke-width=".39688131" d="M249.14 114.172V1.387"/><path fill="none" stroke="currentColor" stroke-miterlimit="10" stroke-opacity=".3" stroke-width=".39688131" d="M173.95 38.98h112.784"/><path fill="#2b7fd6" fill-opacity=".805" d="M198.762 85.973a2.256 2.256 0 1 0-4.512.003 2.256 2.256 0 0 0 4.512-.003M238.238 18.3a2.256 2.256 0 1 0-4.51.004 2.256 2.256 0 0 0 4.51-.003M272.074 80.336a2.256 2.256 0 1 0-4.512-.004 2.256 2.256 0 0 0 4.512.004M210.043 52.137a2.256 2.256 0 1 0-4.511.003 2.256 2.256 0 0 0 4.511-.003m0 0"/><path fill="#c0392b" d="M235.418 55.523a2.822 2.822 0 0 0-5.64 0 2.82 2.82 0 0 0 5.64 0m0 0"/><path fill="currentColor" d="M222.326 123.482c-.172-.36-.454-.625-.907-.625-1.156 0-2.39 1.453-2.39 2.906 0 .922.547 1.578 1.328 1.578.187 0 .687-.046 1.281-.75.078.422.422.75.906.75.344 0 .578-.234.735-.546.156-.36.297-.954.297-.985 0-.094-.094-.094-.125-.094-.094 0-.11.047-.141.172-.172.656-.344 1.235-.75 1.235-.266 0-.297-.25-.297-.454 0-.218.016-.296.125-.734.11-.422.14-.516.219-.89l.36-1.391c.062-.281.062-.297.062-.328 0-.172-.11-.281-.282-.281-.234 0-.39.218-.422.437m-.641 2.578c-.047.172-.047.188-.188.36-.437.546-.843.703-1.125.703-.5 0-.64-.547-.64-.938 0-.484.328-1.703.547-2.156.312-.594.75-.953 1.156-.953.64 0 .781.812.781.875 0 .047-.016.11-.031.156ZM233.444 123.998c.14 0 .328 0 .328-.204s-.188-.203-.328-.203h-5.938c-.125 0-.312 0-.312.204s.187.203.328.203Zm0 1.921c.14 0 .328 0 .328-.203s-.188-.203-.328-.203h-5.922c-.141 0-.328 0-.328.203s.187.204.312.204ZM239.99 120.888c0-.234 0-.25-.219-.25-.609.625-1.484.625-1.812.625v.313c.203 0 .797 0 1.297-.25v5.125c0 .36-.016.469-.906.469h-.328v.312c.343-.031 1.218-.031 1.609-.031.39 0 1.25 0 1.61.031v-.312h-.329c-.89 0-.922-.11-.922-.47Zm0 0"/><g fill="currentColor"><path d="M7.685 143.14c-.86 0-.86-.983-.86-1.218 0-.266 0-.578.157-.828.078-.125.297-.406.703-.406.86 0 .86 1 .86 1.219 0 .265-.016.593-.157.843-.078.11-.312.39-.703.39m-1.156.392c0-.047 0-.266.172-.47.39.282.796.313.984.313.922 0 1.594-.687 1.594-1.453 0-.36-.157-.734-.407-.969.36-.328.72-.375.907-.375h.093c-.109.047-.156.157-.156.266 0 .172.125.297.281.297a.29.29 0 0 0 .282-.297c0-.172-.11-.484-.5-.484-.203 0-.625.062-1.047.468a1.65 1.65 0 0 0-1.047-.359c-.922 0-1.61.688-1.61 1.438 0 .437.22.812.47 1.03-.126.141-.313.47-.313.813 0 .313.125.688.437.89-.593.157-.906.595-.906.985 0 .719.984 1.266 2.188 1.266 1.171 0 2.203-.516 2.203-1.281 0-.344-.14-.86-.657-1.125-.515-.282-1.093-.282-1.703-.282-.234 0-.672 0-.734-.015-.313-.031-.531-.344-.531-.656m1.437 3.124c-1.015 0-1.687-.5-1.687-1.03 0-.454.375-.829.812-.845h.578c.86 0 1.97 0 1.97.844 0 .531-.704 1.031-1.673 1.031M12.093 141.563v-1.094l-1.375.11v.296c.687 0 .765.078.765.563v2.656c0 .438-.109.438-.765.438v.312c.375-.016.844-.031 1.125-.031.39 0 .86 0 1.265.031v-.312h-.218c-.735 0-.75-.11-.75-.454v-1.53c0-.985.422-1.86 1.172-1.86h.109a.46.46 0 0 0-.234.39c0 .282.218.422.437.422.172 0 .422-.11.422-.437 0-.313-.313-.594-.734-.594-.72 0-1.079.656-1.22 1.094M16.068 140.469l-1.39.11v.296c.656 0 .734.063.734.547v2.672c0 .438-.11.438-.766.438v.312c.313-.016.844-.031 1.094-.031.344 0 .688.015 1.031.031v-.312c-.656 0-.703-.047-.703-.438Zm.047-1.734c0-.313-.25-.516-.531-.516a.52.52 0 0 0-.516.516c0 .28.203.53.516.53a.517.517 0 0 0 .531-.53M20.837 144.297v.656l1.453-.109v-.312c-.688 0-.766-.063-.766-.547v-6.016l-1.437.11v.312c.703 0 .781.062.781.547v2.14c-.297-.359-.719-.609-1.25-.609-1.172 0-2.203.969-2.203 2.25 0 1.25.969 2.234 2.094 2.234.64 0 1.078-.343 1.328-.656m0-2.656v2.031c0 .188 0 .203-.11.375-.296.469-.75.688-1.171.688-.438 0-.797-.25-1.032-.641-.265-.406-.297-.969-.297-1.375 0-.36.016-.953.313-1.406.203-.297.578-.625 1.11-.625.359 0 .765.14 1.077.594.11.171.11.187.11.359m0 0"/></g><g fill="currentColor"><path d="m27.627 137.969-1.422.11v.312c.688 0 .766.062.766.547v5.156c0 .438-.11.438-.766.438v.312c.328-.016.844-.031 1.094-.031s.734.015 1.11.031v-.312c-.673 0-.782 0-.782-.438ZM30.38 140.469l-1.39.11v.296c.655 0 .734.063.734.547v2.672c0 .438-.11.438-.766.438v.312c.312-.016.844-.031 1.094-.031.343 0 .687.015 1.03.031v-.312c-.655 0-.702-.047-.702-.438Zm.047-1.734c0-.313-.25-.516-.532-.516a.52.52 0 0 0-.515.516c0 .28.203.53.515.53a.517.517 0 0 0 .532-.53M32.476 141.438v2.656c0 .438-.109.438-.78.438v.312c.343-.016.859-.031 1.124-.031.25 0 .766.015 1.11.031v-.312c-.672 0-.782 0-.782-.438v-1.828c0-1.031.72-1.578 1.344-1.578s.734.531.734 1.094v2.312c0 .438-.109.438-.765.438v.312c.344-.016.844-.031 1.11-.031.265 0 .78.015 1.109.031v-.312c-.516 0-.766 0-.766-.297v-1.891c0-.844 0-1.156-.313-1.516-.14-.172-.468-.359-1.03-.359-.735 0-1.204.422-1.47 1.031v-1.031l-1.406.11v.296c.703 0 .781.078.781.563M37.998 142.344c.062-1.469.89-1.719 1.234-1.719 1.016 0 1.11 1.344 1.11 1.719Zm-.016.219h2.766c.219 0 .25 0 .25-.219 0-.984-.531-1.937-1.766-1.937-1.156 0-2.062 1.015-2.062 2.265 0 1.313 1.031 2.281 2.172 2.281 1.218 0 1.656-1.093 1.656-1.28 0-.11-.078-.126-.125-.126-.094 0-.11.063-.125.14-.36 1.016-1.25 1.016-1.344 1.016-.5 0-.89-.297-1.125-.656-.297-.484-.297-1.14-.297-1.484M43.355 142.922c.219.047 1.031.203 1.031.906 0 .516-.344.907-1.125.907-.828 0-1.187-.563-1.375-1.407-.031-.125-.031-.172-.14-.172-.125 0-.125.079-.125.25v1.313c0 .172 0 .234.109.234.047 0 .062-.015.25-.203.016-.015.016-.031.187-.219.438.407.891.422 1.094.422 1.14 0 1.594-.672 1.594-1.375 0-.53-.297-.828-.406-.937-.328-.328-.72-.406-1.141-.484-.547-.11-1.219-.235-1.219-.813 0-.344.266-.75 1.11-.75 1.093 0 1.14.89 1.172 1.203 0 .078.093.078.109.078.125 0 .125-.047.125-.234v-1c0-.172 0-.234-.11-.234-.046 0-.062 0-.187.124-.031.032-.14.125-.172.157-.375-.281-.781-.281-.937-.281-1.203 0-1.578.656-1.578 1.218 0 .344.156.625.421.844.313.25.594.313 1.313.453m0 0"/></g><path fill="currentColor" d="M55.323 141.61c.14 0 .328 0 .328-.204s-.187-.203-.328-.203h-5.937c-.126 0-.313 0-.313.203s.188.204.328.204Zm0 1.921c.14 0 .328 0 .328-.203s-.187-.203-.328-.203h-5.922c-.14 0-.328 0-.328.203s.188.203.313.203Zm0 0"/><g fill="currentColor"><path d="M62.784 140.875c.453 0 .531.14.531.547v2.672c0 .438-.11.438-.781.438v.312c.328-.016.86-.031 1.11-.031s.734.015 1.093.031v-.312c-.656 0-.766 0-.766-.438v-3.64l-1.25.093c-.156 0-.172.016-.187.016-.016.015-.031.015-.172.015H61.19v-1.125c0-.984.86-1.375 1.469-1.375.297 0 .656.094.86.328-.407.016-.47.297-.47.454 0 .328.25.453.438.453.234 0 .453-.156.453-.453 0-.579-.531-1-1.266-1-.921 0-2.109.5-2.109 1.578v1.14h-.781v.297h.781v3.219c0 .438-.11.438-.766.438v.312c.329-.016.844-.031 1.094-.031s.735.015 1.11.031v-.312c-.672 0-.782 0-.782-.438v-3.219ZM67.868 142.516c.297-.375.672-.86.906-1.125.313-.344.719-.5 1.188-.516v-.297c-.266.016-.563.032-.813.032-.297 0-.828-.032-.953-.032v.297c.203.031.281.156.281.313 0 .156-.094.281-.14.344l-.626.78-.765-1c-.094-.109-.094-.124-.094-.187 0-.14.156-.234.344-.25v-.297c-.25 0-.906.032-1.063.032-.203 0-.671-.016-.937-.032v.297c.687 0 .703.016 1.172.61l.969 1.28-.922 1.173a1.58 1.58 0 0 1-1.266.594v.312c.25-.016.563-.031.813-.031.296 0 .703.015.937.031v-.312c-.203-.032-.281-.157-.281-.297 0-.22.281-.547.89-1.266l.75 1c.079.11.22.266.22.313 0 .093-.095.25-.36.25v.312c.297-.016.844-.031 1.062-.031.266 0 .656.015.953.031v-.312c-.53 0-.718-.016-.937-.297ZM71.364 142.344c.062-1.469.89-1.719 1.234-1.719 1.016 0 1.11 1.344 1.11 1.719Zm-.016.219h2.766c.218 0 .25 0 .25-.219 0-.984-.532-1.937-1.766-1.937-1.156 0-2.062 1.015-2.062 2.265 0 1.313 1.03 2.281 2.171 2.281 1.22 0 1.657-1.093 1.657-1.28 0-.11-.078-.126-.125-.126-.094 0-.11.063-.125.14-.36 1.016-1.25 1.016-1.344 1.016-.5 0-.89-.297-1.125-.656-.297-.484-.297-1.14-.297-1.484M78.424 144.297v.656l1.453-.109v-.312c-.688 0-.766-.063-.766-.547v-6.016l-1.437.11v.312c.703 0 .781.062.781.547v2.14c-.297-.359-.719-.609-1.25-.609-1.172 0-2.203.969-2.203 2.25 0 1.25.969 2.234 2.094 2.234.64 0 1.078-.343 1.328-.656m0-2.656v2.031c0 .188 0 .203-.11.375-.296.469-.75.688-1.171.688-.438 0-.797-.25-1.032-.641-.265-.406-.297-.969-.297-1.375 0-.36.016-.953.313-1.406.203-.297.578-.625 1.11-.625.359 0 .765.14 1.077.594.11.171.11.187.11.359m0 0"/></g><g fill="currentColor"><path d="M84.62 142.688c0-1.625.813-2.031 1.344-2.031.078 0 .703 0 1.062.359-.406.031-.468.328-.468.453 0 .266.172.469.453.469.25 0 .453-.172.453-.469 0-.672-.75-1.062-1.516-1.062-1.234 0-2.14 1.062-2.14 2.296 0 1.266.968 2.25 2.125 2.25 1.328 0 1.64-1.187 1.64-1.28 0-.11-.093-.11-.125-.11-.093 0-.11.047-.125.11-.297.921-.937 1.03-1.297 1.03-.53 0-1.406-.422-1.406-2.015M92.54 142.719c0-1.266-1-2.312-2.188-2.312-1.25 0-2.203 1.078-2.203 2.312 0 1.281 1.031 2.234 2.188 2.234a2.21 2.21 0 0 0 2.203-2.234m-2.188 1.984c-.437 0-.875-.203-1.14-.656-.25-.437-.25-1.047-.25-1.406 0-.375 0-.922.25-1.36a1.32 1.32 0 0 1 1.125-.656c.437 0 .859.219 1.125.64.25.423.25 1 .25 1.376 0 .36 0 .89-.22 1.328a1.27 1.27 0 0 1-1.14.734M93.916 141.438v2.656c0 .438-.109.438-.78.438v.312c.343-.016.858-.031 1.124-.031.25 0 .766.015 1.11.031v-.312c-.672 0-.782 0-.782-.438v-1.828c0-1.031.719-1.578 1.344-1.578s.734.531.734 1.094v2.312c0 .438-.109.438-.765.438v.312c.343-.016.843-.031 1.11-.031.265 0 .78.015 1.108.031v-.312c-.656 0-.765 0-.765-.438v-1.828c0-1.031.703-1.578 1.328-1.578s.734.531.734 1.094v2.312c0 .438-.109.438-.765.438v.312c.343-.016.843-.031 1.11-.031.265 0 .78.015 1.108.031v-.312c-.515 0-.75 0-.765-.297v-1.891c0-.844 0-1.156-.313-1.516-.14-.172-.453-.359-1.03-.359-.829 0-1.267.594-1.438.969-.141-.86-.875-.969-1.313-.969-.734 0-1.203.422-1.469 1.031v-1.031l-1.406.11v.296c.703 0 .781.078.781.563M105.752 142.719c0-1.266-1-2.312-2.188-2.312-1.25 0-2.203 1.078-2.203 2.312 0 1.281 1.031 2.234 2.188 2.234a2.21 2.21 0 0 0 2.203-2.234m-2.188 1.984c-.437 0-.875-.203-1.14-.656-.25-.437-.25-1.047-.25-1.406 0-.375 0-.922.25-1.36a1.32 1.32 0 0 1 1.125-.656c.437 0 .86.219 1.125.64.25.423.25 1 .25 1.376 0 .36 0 .89-.219 1.328a1.27 1.27 0 0 1-1.14.734m0 0"/></g><g fill="currentColor"><path d="M109.893 141.547c.078-.234.25-.656.906-.672v-.297c-.234.016-.515.032-.734.032-.25 0-.703-.032-.875-.032v.297c.375.016.484.25.484.438a.5.5 0 0 1-.062.234l-1.016 2.531-1.11-2.765c-.046-.14-.046-.156-.046-.172 0-.266.375-.266.562-.266v-.297c-.296 0-.859.032-1.078.032-.281 0-.672-.016-.969-.032v.297c.626 0 .672.063.797.375l1.422 3.516c.063.14.078.187.203.187.141 0 .172-.093.22-.187ZM112.748 140.469l-1.39.11v.296c.656 0 .734.063.734.547v2.672c0 .438-.11.438-.766.438v.312c.313-.016.844-.031 1.094-.031.344 0 .687.015 1.031.031v-.312c-.656 0-.703-.047-.703-.438Zm.047-1.734c0-.313-.25-.516-.531-.516a.52.52 0 0 0-.516.516c0 .28.203.53.516.53a.517.517 0 0 0 .53-.53m0 0"/></g><g fill="currentColor"><path d="M114.835 141.438v2.656c0 .438-.11.438-.781.438v.312c.343-.016.859-.031 1.124-.031.25 0 .766.015 1.11.031v-.312c-.672 0-.781 0-.781-.438v-1.828c0-1.031.718-1.578 1.343-1.578s.735.531.735 1.094v2.312c0 .438-.11.438-.766.438v.312c.344-.016.844-.031 1.11-.031.265 0 .78.015 1.109.031v-.312c-.516 0-.766 0-.766-.297v-1.891c0-.844 0-1.156-.312-1.516-.14-.172-.469-.359-1.031-.359-.735 0-1.204.422-1.47 1.031v-1.031l-1.406.11v.296c.704 0 .782.078.782.563M121.45 143.14c-.86 0-.86-.983-.86-1.218 0-.266 0-.578.157-.828.078-.125.297-.406.703-.406.86 0 .86 1 .86 1.219 0 .265-.016.593-.157.843-.078.11-.312.39-.703.39m-1.156.392c0-.047 0-.266.172-.47.39.282.797.313.984.313.922 0 1.594-.687 1.594-1.453 0-.36-.156-.734-.406-.969.359-.328.718-.375.906-.375h.094c-.11.047-.157.157-.157.266 0 .172.125.297.282.297a.29.29 0 0 0 .28-.297c0-.172-.109-.484-.5-.484-.202 0-.624.062-1.046.468a1.65 1.65 0 0 0-1.047-.359c-.922 0-1.61.688-1.61 1.438 0 .437.22.812.47 1.03-.126.141-.313.47-.313.813 0 .313.125.688.438.89-.594.157-.907.595-.907.985 0 .719.985 1.266 2.188 1.266 1.172 0 2.203-.516 2.203-1.281 0-.344-.14-.86-.656-1.125-.516-.282-1.094-.282-1.704-.282-.234 0-.671 0-.734-.015-.312-.031-.531-.344-.531-.656m1.437 3.124c-1.015 0-1.687-.5-1.687-1.03 0-.454.375-.829.812-.845h.579c.859 0 1.968 0 1.968.844 0 .531-.703 1.031-1.672 1.031m0 0"/></g><g fill="currentColor"><path d="M128.667 142.688c0-1.625.813-2.031 1.344-2.031.078 0 .703 0 1.063.359-.407.031-.47.328-.47.453 0 .266.173.469.454.469.25 0 .453-.172.453-.469 0-.672-.75-1.062-1.516-1.062-1.234 0-2.14 1.062-2.14 2.296 0 1.266.968 2.25 2.125 2.25 1.328 0 1.64-1.187 1.64-1.28 0-.11-.093-.11-.125-.11-.093 0-.109.047-.125.11-.297.921-.937 1.03-1.297 1.03-.53 0-1.406-.422-1.406-2.015M136.587 142.719c0-1.266-1-2.312-2.188-2.312-1.25 0-2.203 1.078-2.203 2.312 0 1.281 1.031 2.234 2.188 2.234a2.21 2.21 0 0 0 2.203-2.234m-2.188 1.984c-.437 0-.875-.203-1.14-.656-.25-.437-.25-1.047-.25-1.406 0-.375 0-.922.25-1.36a1.32 1.32 0 0 1 1.125-.656c.437 0 .86.219 1.125.64.25.423.25 1 .25 1.376 0 .36 0 .89-.219 1.328a1.27 1.27 0 0 1-1.14.734m0 0"/></g><g fill="currentColor"><path d="M141.82 142.719c0-1.266-1-2.312-2.188-2.312-1.25 0-2.203 1.078-2.203 2.312 0 1.281 1.031 2.234 2.188 2.234a2.21 2.21 0 0 0 2.203-2.234m-2.188 1.984c-.437 0-.875-.203-1.14-.656-.25-.437-.25-1.047-.25-1.406 0-.375 0-.922.25-1.36a1.32 1.32 0 0 1 1.125-.656c.437 0 .86.219 1.125.64.25.423.25 1 .25 1.376 0 .36 0 .89-.219 1.328a1.27 1.27 0 0 1-1.14.734M143.758 141.563v-1.094l-1.375.11v.296c.688 0 .766.078.766.563v2.656c0 .438-.11.438-.766.438v.312c.375-.016.844-.031 1.125-.031.39 0 .86 0 1.266.031v-.312h-.219c-.734 0-.75-.11-.75-.454v-1.53c0-.985.422-1.86 1.172-1.86h.11a.46.46 0 0 0-.235.39c0 .282.219.422.438.422.171 0 .421-.11.421-.437 0-.313-.312-.594-.734-.594-.719 0-1.078.656-1.219 1.094M149.75 144.297v.656l1.453-.109v-.312c-.688 0-.766-.063-.766-.547v-6.016l-1.437.11v.312c.703 0 .78.062.78.547v2.14c-.296-.359-.718-.609-1.25-.609-1.171 0-2.202.969-2.202 2.25 0 1.25.969 2.234 2.094 2.234.64 0 1.078-.343 1.328-.656m0-2.656v2.031c0 .188 0 .203-.11.375-.297.469-.75.688-1.172.688-.437 0-.796-.25-1.03-.641-.266-.406-.298-.969-.298-1.375 0-.36.016-.953.313-1.406.203-.297.578-.625 1.11-.625.359 0 .765.14 1.077.594.11.171.11.187.11.359M153.24 140.469l-1.39.11v.296c.656 0 .734.063.734.547v2.672c0 .438-.11.438-.766.438v.312c.313-.016.844-.031 1.094-.031.344 0 .687.015 1.031.031v-.312c-.656 0-.703-.047-.703-.438Zm.047-1.734c0-.313-.25-.516-.531-.516a.52.52 0 0 0-.516.516c0 .28.203.53.516.53a.517.517 0 0 0 .53-.53M155.337 141.438v2.656c0 .438-.11.438-.781.438v.312c.343-.016.859-.031 1.124-.031.25 0 .766.015 1.11.031v-.312c-.672 0-.781 0-.781-.438v-1.828c0-1.031.718-1.578 1.343-1.578s.735.531.735 1.094v2.312c0 .438-.11.438-.766.438v.312c.344-.016.844-.031 1.11-.031.265 0 .78.015 1.109.031v-.312c-.516 0-.766 0-.766-.297v-1.891c0-.844 0-1.156-.312-1.516-.14-.172-.469-.359-1.031-.359-.735 0-1.204.422-1.47 1.031v-1.031l-1.406.11v.296c.704 0 .782.078.782.563m0 0"/></g><g fill="currentColor"><path d="M163.036 144.094c.047.39.312.813.781.813.203 0 .813-.141.813-.938v-.562h-.25v.562c0 .563-.25.625-.36.625-.328 0-.375-.437-.375-.5v-1.969c0-.422 0-.812-.344-1.172-.39-.39-.89-.547-1.359-.547-.812 0-1.5.47-1.5 1.125 0 .297.203.454.453.454.281 0 .453-.188.453-.454 0-.109-.047-.437-.5-.453.266-.343.75-.453 1.063-.453.5 0 1.062.39 1.062 1.266v.375c-.515.016-1.203.047-1.828.344-.75.343-.984.859-.984 1.296 0 .797.953 1.047 1.578 1.047.656 0 1.11-.39 1.297-.859m-.063-1.625v.984c0 .938-.718 1.282-1.156 1.282-.5 0-.906-.344-.906-.844 0-.547.422-1.36 2.062-1.422M166.412 140.875h1.406v-.297h-1.406v-1.828h-.25c-.016.813-.313 1.875-1.281 1.906v.22h.843v2.734c0 1.218.922 1.343 1.282 1.343.703 0 .968-.703.968-1.343v-.563h-.234v.547c0 .734-.297 1.11-.672 1.11-.656 0-.656-.907-.656-1.063ZM169.656 142.344c.063-1.469.891-1.719 1.235-1.719 1.015 0 1.11 1.344 1.11 1.719Zm-.015.219h2.765c.22 0 .25 0 .25-.219 0-.984-.53-1.937-1.765-1.937-1.156 0-2.063 1.015-2.063 2.265 0 1.313 1.031 2.281 2.172 2.281 1.219 0 1.656-1.093 1.656-1.28 0-.11-.078-.126-.125-.126-.093 0-.109.063-.125.14-.359 1.016-1.25 1.016-1.343 1.016-.5 0-.891-.297-1.125-.656-.297-.484-.297-1.14-.297-1.484m0 0"/></g><path fill="currentColor" d="M175.024 142.922c.218.047 1.03.203 1.03.906 0 .516-.343.907-1.124.907-.828 0-1.188-.563-1.375-1.407-.031-.125-.031-.172-.14-.172-.126 0-.126.079-.126.25v1.313c0 .172 0 .234.11.234.046 0 .062-.015.25-.203.015-.015.015-.031.187-.219.438.407.89.422 1.094.422 1.14 0 1.594-.672 1.594-1.375 0-.53-.297-.828-.407-.937-.328-.328-.718-.406-1.14-.484-.547-.11-1.22-.235-1.22-.813 0-.344.267-.75 1.11-.75 1.094 0 1.14.89 1.172 1.203 0 .078.094.078.11.078.125 0 .125-.047.125-.234v-1c0-.172 0-.234-.11-.234-.047 0-.062 0-.187.124-.032.032-.141.125-.172.157-.375-.281-.781-.281-.938-.281-1.203 0-1.578.656-1.578 1.218 0 .344.156.625.422.844.313.25.594.313 1.313.453M185.482 140.875a.73.73 0 0 0-.532.688.46.46 0 0 0 .485.453c.343 0 .718-.297.718-.781 0-.516-.53-.875-1.125-.875-.562 0-.937.437-1.062.609-.25-.422-.813-.61-1.375-.61-1.25 0-1.922 1.22-1.922 1.547 0 .141.156.141.25.141.11 0 .188 0 .219-.125.297-.906 1-1.203 1.406-1.203.375 0 .563.188.563.5 0 .188-.141.734-.235 1.094l-.328 1.36c-.156.593-.516.89-.844.89-.062 0-.281 0-.484-.14a.74.74 0 0 0 .531-.688c0-.22-.156-.454-.484-.454a.737.737 0 0 0-.719.766c0 .531.531.875 1.125.875.578 0 .938-.422 1.063-.61.25.423.812.61 1.375.61 1.25 0 1.921-1.219 1.921-1.547 0-.14-.156-.14-.25-.14-.109 0-.187 0-.218.14-.282.89-1 1.188-1.407 1.188-.375 0-.562-.172-.562-.485 0-.218.14-.734.219-1.109.078-.25.297-1.187.359-1.344.14-.594.484-.906.828-.906.063 0 .281 0 .484.156M188.606 141.094a.524.524 0 1 0-1.047.016.524.524 0 0 0 1.047-.016m-.187 3.64c0 .282 0 1.047-.64 1.782-.063.078-.063.094-.063.125 0 .078.046.11.093.11.11 0 .828-.782.828-1.938 0-.281-.03-1.016-.562-1.016-.344 0-.516.266-.516.516 0 .265.157.531.516.531.047 0 .078 0 .078-.016a.46.46 0 0 0 .266-.093m0 0"/><g fill="currentColor"><path d="M194.472 140.875h1.406v-.297h-1.406v-1.828h-.25c-.016.813-.313 1.875-1.282 1.906v.22h.844v2.734c0 1.218.922 1.343 1.281 1.343.704 0 .97-.703.97-1.343v-.563h-.235v.547c0 .734-.297 1.11-.672 1.11-.656 0-.656-.907-.656-1.063ZM197.7 144.094c0 .438-.11.438-.781.438v.312c.343-.016.859-.031 1.124-.031.25 0 .766.015 1.11.031v-.312c-.672 0-.781 0-.781-.438v-1.828c0-1.031.718-1.578 1.343-1.578s.735.531.735 1.094v2.312c0 .438-.11.438-.766.438v.312c.344-.016.844-.031 1.11-.031.265 0 .78.015 1.109.031v-.312c-.516 0-.766 0-.766-.297v-1.891c0-.844 0-1.156-.312-1.516-.14-.172-.469-.359-1.031-.359-.844 0-1.282.594-1.438.969v-3.469l-1.437.11v.312c.703 0 .78.062.78.547ZM203.221 142.344c.063-1.469.891-1.719 1.235-1.719 1.015 0 1.11 1.344 1.11 1.719Zm-.015.219h2.765c.22 0 .25 0 .25-.219 0-.984-.53-1.937-1.765-1.937-1.156 0-2.063 1.015-2.063 2.265 0 1.313 1.031 2.281 2.172 2.281 1.219 0 1.656-1.093 1.656-1.28 0-.11-.078-.126-.125-.126-.093 0-.109.063-.125.14-.359 1.016-1.25 1.016-1.343 1.016-.5 0-.891-.297-1.125-.656-.297-.484-.297-1.14-.297-1.484m0 0"/></g><g fill="currentColor"><path d="M211.53 141.125v-.656l-1.423.11v.296c.703 0 .766.063.766.5v4.64c0 .438-.11.438-.766.438v.313c.328-.016.844-.031 1.11-.031.265 0 .765.015 1.109.03v-.312c-.656 0-.766 0-.766-.437v-1.75c.047.156.47.687 1.22.687 1.171 0 2.202-.968 2.202-2.25 0-1.25-.953-2.234-2.062-2.234-.781 0-1.188.438-1.39.656m.03 2.594V141.5c.282-.5.766-.781 1.282-.781.718 0 1.328.86 1.328 1.984 0 1.203-.703 2.032-1.438 2.032-.39 0-.765-.204-1.031-.61-.14-.203-.14-.219-.14-.406M216.426 144.094c0 .438-.11.438-.781.438v.312c.343-.016.859-.031 1.124-.031.25 0 .766.015 1.11.031v-.312c-.672 0-.781 0-.781-.438v-1.828c0-1.031.718-1.578 1.343-1.578s.735.531.735 1.094v2.312c0 .438-.11.438-.766.438v.312c.344-.016.844-.031 1.11-.031.265 0 .78.015 1.109.031v-.312c-.516 0-.766 0-.766-.297v-1.891c0-.844 0-1.156-.312-1.516-.14-.172-.469-.359-1.031-.359-.844 0-1.282.594-1.438.969v-3.469l-1.437.11v.312c.703 0 .78.062.78.547Zm0 0"/></g><g fill="currentColor"><path d="M224.67 141.516c.265-.625.765-.64.921-.64v-.298c-.234.016-.515.032-.734.032-.188 0-.656-.032-.875-.032v.297c.312.016.469.188.469.438 0 .094 0 .11-.063.234l-1 2.438-1.094-2.672a.5.5 0 0 1-.062-.172c0-.266.375-.266.562-.266v-.297c-.265 0-.922.032-1.078.032-.281 0-.672-.016-.969-.032v.297c.47 0 .672 0 .797.36l1.5 3.609a9 9 0 0 0-.25.578c-.218.547-.5 1.234-1.14 1.234-.047 0-.266 0-.453-.171a.41.41 0 0 0 .375-.422c0-.266-.188-.422-.407-.422a.414.414 0 0 0-.422.437c0 .438.422.797.907.797.625 0 1.031-.562 1.281-1.125ZM227.853 142.922c.218.047 1.03.203 1.03.906 0 .516-.343.907-1.124.907-.828 0-1.188-.563-1.375-1.407-.031-.125-.031-.172-.14-.172-.126 0-.126.079-.126.25v1.313c0 .172 0 .234.11.234.046 0 .062-.015.25-.203.015-.015.015-.031.187-.219.438.407.89.422 1.094.422 1.14 0 1.594-.672 1.594-1.375 0-.53-.297-.828-.407-.937-.328-.328-.719-.406-1.14-.484-.547-.11-1.22-.235-1.22-.813 0-.344.266-.75 1.11-.75 1.094 0 1.14.89 1.172 1.203 0 .078.094.078.11.078.124 0 .124-.047.124-.234v-1c0-.172 0-.234-.109-.234-.047 0-.062 0-.187.124-.032.032-.141.125-.172.157-.375-.281-.781-.281-.938-.281-1.203 0-1.578.656-1.578 1.218 0 .344.156.625.422.844.313.25.594.313 1.313.453M231.449 140.469l-1.39.11v.296c.656 0 .734.063.734.547v2.672c0 .438-.11.438-.766.438v.312c.313-.016.844-.031 1.094-.031.344 0 .687.015 1.031.031v-.312c-.656 0-.703-.047-.703-.438Zm.047-1.734c0-.313-.25-.516-.531-.516a.52.52 0 0 0-.516.516c0 .28.203.53.516.53a.517.517 0 0 0 .53-.53M233.608 142.688c0-1.625.813-2.031 1.344-2.031.078 0 .703 0 1.063.359-.407.031-.47.328-.47.453 0 .266.173.469.454.469.25 0 .453-.172.453-.469 0-.672-.75-1.062-1.516-1.062-1.234 0-2.14 1.062-2.14 2.296 0 1.266.969 2.25 2.125 2.25 1.328 0 1.64-1.187 1.64-1.28 0-.11-.093-.11-.125-.11-.093 0-.109.047-.125.11-.297.921-.937 1.03-1.297 1.03-.53 0-1.406-.422-1.406-2.015M240.153 144.094c.047.39.312.813.781.813.203 0 .813-.141.813-.938v-.562h-.25v.562c0 .563-.25.625-.36.625-.328 0-.375-.437-.375-.5v-1.969c0-.422 0-.812-.344-1.172-.39-.39-.89-.547-1.359-.547-.812 0-1.5.47-1.5 1.125 0 .297.203.454.453.454.281 0 .453-.188.453-.454 0-.109-.047-.437-.5-.453.266-.343.75-.453 1.063-.453.5 0 1.062.39 1.062 1.266v.375c-.515.016-1.203.047-1.828.344-.75.343-.984.859-.984 1.296 0 .797.953 1.047 1.578 1.047.656 0 1.11-.39 1.297-.859m-.063-1.625v.984c0 .938-.718 1.282-1.156 1.282-.5 0-.906-.344-.906-.844 0-.547.422-1.36 2.062-1.422M243.56 137.969l-1.422.11v.312c.688 0 .766.062.766.547v5.156c0 .438-.11.438-.766.438v.312c.328-.016.844-.031 1.094-.031s.734.015 1.11.031v-.312c-.673 0-.782 0-.782-.438Zm0 0"/></g><path fill="currentColor" d="M249.566 141.11v-3.141l-1.422.11v.312c.688 0 .766.062.766.547v5.906h.25c.016-.016.094-.156.36-.61.14.22.562.72 1.296.72 1.172 0 2.203-.97 2.203-2.25 0-1.25-.969-2.235-2.094-2.235-.78 0-1.203.469-1.359.64m.031 2.609v-2.047c0-.187 0-.203.11-.36a1.45 1.45 0 0 1 1.172-.624c.437 0 .797.25 1.03.625.267.406.298.969.298 1.375 0 .375-.031.969-.313 1.406-.203.313-.578.64-1.125.64-.437 0-.797-.234-1.031-.609-.14-.203-.14-.234-.14-.406M258.318 142.719c0-1.266-1-2.312-2.188-2.312-1.25 0-2.203 1.078-2.203 2.312 0 1.281 1.031 2.234 2.188 2.234a2.21 2.21 0 0 0 2.203-2.234m-2.188 1.984c-.437 0-.875-.203-1.14-.656-.25-.437-.25-1.047-.25-1.406 0-.375 0-.922.25-1.36a1.32 1.32 0 0 1 1.125-.656c.437 0 .86.219 1.125.64.25.423.25 1 .25 1.376 0 .36 0 .89-.219 1.328a1.27 1.27 0 0 1-1.14.734M261.168 142.516c.297-.375.672-.86.906-1.125.313-.344.719-.5 1.188-.516v-.297c-.266.016-.563.032-.813.032-.297 0-.828-.032-.953-.032v.297c.203.031.281.156.281.313 0 .156-.094.281-.14.344l-.625.78-.766-1c-.094-.109-.094-.124-.094-.187 0-.14.156-.234.344-.25v-.297c-.25 0-.906.032-1.063.032-.203 0-.671-.016-.937-.032v.297c.687 0 .703.016 1.172.61l.969 1.28-.922 1.173a1.58 1.58 0 0 1-1.266.594v.312c.25-.016.563-.031.813-.031.296 0 .703.015.937.031v-.312c-.203-.032-.281-.157-.281-.297 0-.22.281-.547.89-1.266l.75 1c.079.11.22.266.22.313 0 .093-.095.25-.36.25v.312c.297-.016.844-.031 1.062-.031.266 0 .656.015.953.031v-.312c-.53 0-.718-.016-.937-.297Zm0 0"/><g fill="currentColor"><path d="M268.917 142.922c.218.047 1.03.203 1.03.906 0 .516-.343.907-1.124.907-.828 0-1.188-.563-1.375-1.407-.031-.125-.031-.172-.14-.172-.126 0-.126.079-.126.25v1.313c0 .172 0 .234.11.234.046 0 .062-.015.25-.203.015-.015.015-.031.187-.219.438.407.89.422 1.094.422 1.14 0 1.594-.672 1.594-1.375 0-.53-.297-.828-.407-.937-.328-.328-.719-.406-1.14-.484-.547-.11-1.22-.235-1.22-.813 0-.344.267-.75 1.11-.75 1.094 0 1.14.89 1.172 1.203 0 .078.094.078.11.078.125 0 .125-.047.125-.234v-1c0-.172 0-.234-.11-.234-.047 0-.062 0-.187.124-.032.032-.141.125-.172.157-.375-.281-.781-.281-.938-.281-1.203 0-1.578.656-1.578 1.218 0 .344.156.625.422.844.313.25.594.313 1.313.453M272.512 140.469l-1.39.11v.296c.656 0 .734.063.734.547v2.672c0 .438-.11.438-.766.438v.312c.313-.016.844-.031 1.094-.031.344 0 .687.015 1.031.031v-.312c-.656 0-.703-.047-.703-.438Zm.047-1.734c0-.313-.25-.516-.531-.516a.52.52 0 0 0-.516.516c0 .28.203.53.516.53a.517.517 0 0 0 .53-.53M277.374 140.875c.094-.11.094-.125.094-.172 0-.125-.078-.125-.266-.125h-3.156l-.11 1.594h.235c.063-1.016.25-1.375 1.344-1.375h1.125l-2.766 3.734c-.078.11-.078.125-.078.172 0 .141.063.141.25.141h3.266l.172-1.86h-.25c-.078 1.172-.297 1.61-1.438 1.61h-1.172ZM279.028 142.344c.063-1.469.891-1.719 1.235-1.719 1.015 0 1.11 1.344 1.11 1.719Zm-.015.219h2.765c.22 0 .25 0 .25-.219 0-.984-.53-1.937-1.765-1.937-1.156 0-2.063 1.015-2.063 2.265 0 1.313 1.031 2.281 2.172 2.281 1.219 0 1.656-1.093 1.656-1.28 0-.11-.078-.126-.125-.126-.093 0-.109.063-.125.14-.359 1.016-1.25 1.016-1.343 1.016-.5 0-.891-.297-1.125-.656-.297-.484-.297-1.14-.297-1.484m0 0"/></g><g fill="currentColor"><path d="M289.32 141.094c-.171-.36-.453-.625-.906-.625-1.156 0-2.39 1.453-2.39 2.906 0 .922.546 1.578 1.328 1.578.187 0 .687-.047 1.281-.75.078.422.422.75.906.75.344 0 .578-.234.735-.547.156-.359.296-.953.296-.984 0-.094-.093-.094-.125-.094-.093 0-.109.047-.14.172-.172.656-.344 1.235-.75 1.235-.266 0-.297-.25-.297-.454 0-.218.016-.296.125-.734.11-.422.14-.516.219-.89l.36-1.391c.062-.281.062-.297.062-.328 0-.172-.11-.281-.282-.281-.234 0-.39.218-.422.437m-.64 2.578c-.047.172-.047.188-.188.36-.437.546-.843.703-1.125.703-.5 0-.64-.547-.64-.938 0-.484.328-1.703.547-2.156.312-.594.75-.953 1.156-.953.64 0 .781.812.781.875 0 .047-.016.11-.031.156ZM294.574 138.844c.094-.344.125-.453 1.047-.453.297 0 .375 0 .375-.188 0-.125-.11-.125-.156-.125-.328 0-1.14.032-1.469.032-.297 0-1.016-.032-1.312-.032-.063 0-.188 0-.188.203 0 .11.094.11.281.11.016 0 .203 0 .375.016.172.015.266.03.266.156 0 .047-.016.062-.047.187l-1.312 5.328c-.11.375-.126.453-.907.453-.172 0-.265 0-.265.204 0 .109.078.109.265.109h4.578c.25 0 .25 0 .313-.172l.781-2.14c.047-.11.047-.126.047-.141a.12.12 0 0 0-.125-.11c-.094 0-.094.063-.172.22-.328.905-.766 2.03-2.484 2.03h-1.141c-.11-.015-.14-.03-.14-.109 0-.031 0-.047.062-.219Zm0 0"/></g><g fill="currentColor"><path d="M303.12 143.14c-.86 0-.86-.983-.86-1.218 0-.266 0-.578.156-.828.078-.125.297-.406.703-.406.86 0 .86 1 .86 1.219 0 .265-.016.593-.157.843-.078.11-.312.39-.703.39m-1.157.392c0-.047 0-.266.172-.47.39.282.797.313.984.313.922 0 1.594-.687 1.594-1.453 0-.36-.156-.734-.406-.969.359-.328.718-.375.906-.375h.094c-.11.047-.157.157-.157.266 0 .172.125.297.282.297a.29.29 0 0 0 .28-.297c0-.172-.108-.484-.5-.484-.202 0-.624.062-1.046.468a1.65 1.65 0 0 0-1.047-.359c-.922 0-1.61.688-1.61 1.438 0 .437.22.812.47 1.03-.125.141-.313.47-.313.813 0 .313.125.688.438.89-.594.157-.907.595-.907.985 0 .719.985 1.266 2.188 1.266 1.172 0 2.203-.516 2.203-1.281 0-.344-.14-.86-.656-1.125-.516-.282-1.094-.282-1.704-.282-.234 0-.671 0-.734-.015-.312-.031-.531-.344-.531-.656m1.437 3.124c-1.015 0-1.687-.5-1.687-1.03 0-.454.375-.829.812-.845h.579c.859 0 1.968 0 1.968.844 0 .531-.703 1.031-1.672 1.031M307.526 141.563v-1.094l-1.375.11v.296c.688 0 .766.078.766.563v2.656c0 .438-.11.438-.766.438v.312c.375-.016.844-.031 1.125-.031.39 0 .86 0 1.266.031v-.312h-.219c-.734 0-.75-.11-.75-.454v-1.53c0-.985.422-1.86 1.172-1.86h.11a.46.46 0 0 0-.235.39c0 .282.219.422.438.422.171 0 .421-.11.421-.437 0-.313-.312-.594-.734-.594-.719 0-1.078.656-1.219 1.094M314.424 142.719c0-1.266-1-2.312-2.188-2.312-1.25 0-2.203 1.078-2.203 2.312 0 1.281 1.031 2.234 2.188 2.234a2.21 2.21 0 0 0 2.203-2.234m-2.188 1.984c-.437 0-.875-.203-1.14-.656-.25-.437-.25-1.047-.25-1.406 0-.375 0-.922.25-1.36a1.32 1.32 0 0 1 1.125-.656c.437 0 .86.219 1.125.64.25.423.25 1 .25 1.376 0 .36 0 .89-.219 1.328a1.27 1.27 0 0 1-1.14.734m0 0"/></g><g fill="currentColor"><path d="M320.554 141.516c.188-.5.5-.625.844-.64v-.298a12 12 0 0 1-.735.032c-.28 0-.718-.032-.922-.032v.297c.36.016.579.188.579.485 0 .062 0 .078-.047.203l-.907 2.531-.968-2.75c-.047-.125-.063-.14-.063-.187 0-.282.39-.282.594-.282v-.297c-.297 0-.797.032-1.031.032-.297 0-.594-.016-.89-.032v.297c.374 0 .53.031.624.156.063.063.172.36.234.547l-.859 2.391-.937-2.64c-.047-.126-.047-.141-.047-.173 0-.28.39-.28.578-.28v-.298c-.297 0-.844.032-1.078.032-.032 0-.563-.016-.922-.032v.297c.5 0 .625.031.734.36l1.25 3.5c.047.14.078.218.219.218.125 0 .14-.062.188-.203l1-2.797 1.015 2.813c.031.11.063.187.203.187.125 0 .156-.093.188-.187ZM323.649 142.922c.218.047 1.03.203 1.03.906 0 .516-.343.907-1.124.907-.828 0-1.188-.563-1.375-1.407-.031-.125-.031-.172-.14-.172-.126 0-.126.079-.126.25v1.313c0 .172 0 .234.11.234.046 0 .062-.015.25-.203.015-.015.015-.031.187-.219.438.407.89.422 1.094.422 1.14 0 1.594-.672 1.594-1.375 0-.53-.297-.828-.407-.937-.328-.328-.719-.406-1.14-.484-.547-.11-1.22-.235-1.22-.813 0-.344.267-.75 1.11-.75 1.094 0 1.14.89 1.172 1.203 0 .078.094.078.11.078.125 0 .125-.047.125-.234v-1c0-.172 0-.234-.11-.234-.047 0-.062 0-.187.124-.032.032-.141.125-.172.157-.375-.281-.781-.281-.938-.281-1.203 0-1.578.656-1.578 1.218 0 .344.156.625.422.844.313.25.594.313 1.313.453m0 0"/></g></svg>