<svg xmlns="http://www.w3.org/2000/svg" width="787.168" height="333.731" fill="currentColor" viewBox="0 0 590.376 250.298"><defs><style>*{stroke-linejoin:round;stroke-linecap:butt}</style></defs><path d="M0 250.298h590.376V0H0z" style="fill:none"/><path d="M51.096 214.272h243.49V3.6H51.097z" style="fill:none"/><path d="M0 0v3.5" style="stroke:currentColor;stroke-width:.8" transform="translate(283.519 214.272)"/><path d="M275.204 228.633h1.772v-6.118l-1.929.386v-.988l1.918-.387h1.085v7.107h1.772v.913h-4.618zM284.334 222.241q-.837 0-1.26.825-.421.824-.421 2.479 0 1.648.42 2.473.424.825 1.26.825.844 0 1.266-.825t.422-2.473q0-1.655-.422-2.479t-1.265-.825m0-.859q1.349 0 2.06 1.067t.712 3.096q0 2.024-.712 3.092-.711 1.065-2.06 1.065-1.348 0-2.06-1.065-.711-1.068-.711-3.092 0-2.03.711-3.096.712-1.067 2.06-1.067M290.389 220.222q-.586 0-.882.577-.295.577-.295 1.735 0 1.154.295 1.732.296.577.882.577.59 0 .885-.577.296-.578.296-1.732 0-1.158-.296-1.735-.295-.577-.885-.577m0-.602q.944 0 1.442.747.498.746.498 2.167 0 1.418-.498 2.165-.498.746-1.442.746t-1.442-.746q-.498-.747-.498-2.165 0-1.42.498-2.167t1.442-.747"/><path d="M0 0v2" style="stroke:currentColor;stroke-width:.6" transform="translate(62.164 214.272)"/><path d="M43.472 223.63q.779.167 1.215.695.439.526.439 1.3 0 1.185-.817 1.837-.816.65-2.32.65-.504 0-1.038-.1-.535-.1-1.104-.3v-1.046q.45.263.987.397.538.134 1.124.134 1.02 0 1.554-.402t.534-1.17q0-.71-.496-1.11-.497-.4-1.382-.4h-.935v-.892h.978q.799 0 1.223-.32t.425-.92q0-.618-.438-.948-.437-.331-1.253-.331-.447 0-.958.098-.51.096-1.122.299v-.966q.619-.172 1.159-.258t1.017-.086q1.236 0 1.954.562.72.56.72 1.516 0 .667-.381 1.126-.382.459-1.085.636M55.864 222.046l-2.456 2.466 2.456 2.455-.64.65-2.466-2.465-2.464 2.464-.635-.65 2.45-2.454-2.45-2.466.635-.65 2.464 2.467 2.467-2.467zM60.875 227.042h1.772v-6.118l-1.929.386v-.988l1.919-.387h1.084v7.107h1.772v.913h-4.618zM70.005 220.65q-.837 0-1.26.825-.421.824-.421 2.479 0 1.648.42 2.473.424.825 1.26.825.845 0 1.266-.825t.422-2.473q0-1.655-.422-2.479-.421-.825-1.265-.825m0-.86q1.349 0 2.06 1.068.712 1.066.712 3.096 0 2.024-.712 3.092-.711 1.065-2.06 1.065-1.348 0-2.06-1.065-.711-1.068-.711-3.092 0-2.03.712-3.096.711-1.067 2.059-1.067M74.428 221.01h4.82v.64h-4.82zM81.02 223.105h1.24v-4.283l-1.35.27v-.691l1.343-.27h.759v4.974h1.24v.64H81.02z"/><path d="M0 0v2" style="stroke:currentColor;stroke-width:.6" transform="translate(115.055 214.272)"/><path d="m96.058 220.88-2.74 4.282h2.74zm-.285-.945h1.364v5.227h1.145v.902h-1.145v1.891h-1.08v-1.89h-3.619v-1.047zM108.756 222.046l-2.456 2.466 2.456 2.455-.64.65-2.466-2.465-2.465 2.464-.634-.65 2.45-2.454-2.45-2.466.634-.65 2.465 2.467 2.466-2.467zM113.766 227.042h1.772v-6.118l-1.928.386v-.988l1.918-.387h1.085v7.107h1.772v.913h-4.619zM122.896 220.65q-.837 0-1.26.825-.42.824-.42 2.479 0 1.648.42 2.473.423.825 1.26.825.844 0 1.265-.825.423-.825.423-2.473 0-1.655-.423-2.479-.42-.825-1.265-.825m0-.86q1.35 0 2.061 1.068.712 1.066.712 3.096 0 2.024-.712 3.092-.712 1.065-2.06 1.065t-2.06-1.065q-.711-1.068-.711-3.092 0-2.03.711-3.096.712-1.067 2.06-1.067M127.32 221.01h4.82v.64h-4.82zM133.911 223.105h1.24v-4.283l-1.35.27v-.691l1.343-.27h.76v4.974h1.24v.64h-3.233z"/><path d="M0 0v2" style="stroke:currentColor;stroke-width:.6" transform="translate(156.081 214.272)"/><path d="M0 0v2" style="stroke:currentColor;stroke-width:.6" transform="translate(189.602 214.272)"/><path d="M170.078 223.514q-.73 0-1.158.5-.426.498-.426 1.368 0 .865.426 1.368.428.502 1.158.502t1.157-.502q.426-.503.426-1.368 0-.87-.426-1.368-.426-.5-1.157-.5m2.154-3.402v.989q-.41-.193-.825-.294-.416-.103-.825-.103-1.074 0-1.641.725-.566.725-.647 2.191.317-.467.794-.716.48-.25 1.054-.25 1.208 0 1.91.734.7.732.7 1.994 0 1.236-.73 1.983-.73.746-1.944.746-1.392 0-2.127-1.065-.736-1.068-.736-3.092 0-1.901.902-3.032.903-1.131 2.422-1.131.41 0 .825.08.416.081.868.241M183.302 222.046l-2.456 2.466 2.456 2.455-.64.65-2.466-2.465-2.464 2.464-.635-.65 2.45-2.454-2.45-2.466.635-.65 2.464 2.467 2.467-2.467zM188.313 227.042h1.772v-6.118l-1.929.386v-.988l1.919-.387h1.084v7.107h1.772v.913h-4.618zM197.443 220.65q-.837 0-1.26.825-.421.824-.421 2.479 0 1.648.42 2.473.424.825 1.26.825.845 0 1.266-.825t.422-2.473q0-1.655-.422-2.479-.421-.825-1.265-.825m0-.86q1.349 0 2.06 1.068.712 1.066.712 3.096 0 2.024-.712 3.092-.711 1.065-2.06 1.065-1.348 0-2.06-1.065-.711-1.068-.711-3.092 0-2.03.712-3.096.711-1.067 2.059-1.067M201.866 221.01h4.82v.64h-4.82zM208.458 223.105h1.24v-4.283l-1.35.27v-.691l1.343-.27h.759v4.974h1.24v.64h-3.232z"/><path d="M0 0v2" style="stroke:currentColor;stroke-width:.6" transform="translate(217.943 214.272)"/><path d="M0 0v2" style="stroke:currentColor;stroke-width:.6" transform="translate(242.493 214.272)"/><path d="M0 0v2" style="stroke:currentColor;stroke-width:.6" transform="translate(264.148 214.272)"/><path d="M131.823 239.04q-.794 0-1.256.62t-.462 1.7.459 1.7q.46.62 1.26.62.79 0 1.25-.622.463-.624.463-1.699 0-1.069-.462-1.694-.461-.626-1.252-.626m0-.838q1.29 0 2.025.839.737.837.737 2.318 0 1.477-.737 2.32-.736.84-2.025.84-1.294 0-2.028-.84-.732-.843-.732-2.32 0-1.481.732-2.318.734-.839 2.028-.839M137.178 243.46v3.19h-.993v-8.303h.993v.912q.313-.536.788-.796t1.136-.26q1.096 0 1.78.869.686.87.686 2.287 0 1.418-.686 2.29-.684.87-1.78.87-.66 0-1.136-.262-.475-.26-.788-.797m3.364-2.1q0-1.09-.449-1.71-.448-.621-1.232-.621-.785 0-1.234.62t-.449 1.71.449 1.71 1.234.621q.784 0 1.232-.62.449-.62.449-1.71M148.351 241.107v.483h-4.544q.065 1.02.615 1.555t1.533.535q.57 0 1.104-.14.534-.139 1.062-.419v.935q-.533.225-1.092.344-.558.119-1.132.119-1.44 0-2.281-.837-.84-.84-.84-2.27 0-1.476.797-2.342.798-.868 2.152-.868 1.213 0 1.92.782.706.78.706 2.123m-.988-.29q-.01-.81-.454-1.293-.443-.485-1.174-.485-.827 0-1.323.468-.497.467-.573 1.316zM154.974 240.73v3.632h-.988v-3.599q0-.854-.333-1.277-.334-.424-.999-.424-.8 0-1.263.51-.463.509-.463 1.39v3.4h-.993v-6.015h.993v.935q.356-.544.836-.812.481-.268 1.11-.268 1.036 0 1.568.641t.532 1.887M156.944 238.347h.989v6.015h-.989zm0-2.343h.989v1.253h-.989zM165.002 240.73v3.632h-.988v-3.599q0-.854-.334-1.277-.333-.424-.998-.424-.801 0-1.263.51-.463.509-.463 1.39v3.4h-.993v-6.015h.993v.935q.356-.544.836-.812t1.11-.268q1.036 0 1.567.641.533.641.533 1.887M170.93 241.284q0-1.074-.443-1.664-.442-.591-1.243-.591-.794 0-1.237.591-.443.59-.443 1.664 0 1.069.443 1.66t1.237.591q.801 0 1.243-.59.444-.592.444-1.661m.989 2.332q0 1.535-.682 2.284-.681.75-2.089.75-.52 0-.983-.078-.462-.077-.897-.238v-.961q.435.235.86.347.424.113.864.113.973 0 1.456-.507t.483-1.533v-.49q-.306.533-.784.796t-1.145.263q-1.105 0-1.782-.842-.677-.844-.677-2.236 0-1.396.677-2.238.677-.844 1.782-.844.667 0 1.145.263t.784.794v-.912h.988zM180.186 241.339q-1.198 0-1.66.273-.463.273-.463.935 0 .526.347.835.348.308.942.308.824 0 1.32-.583.497-.582.497-1.548v-.22zm1.971-.41v3.433h-.988v-.913q-.339.547-.844.808-.505.262-1.236.262-.923 0-1.47-.52-.544-.519-.544-1.388 0-1.014.679-1.53.68-.516 2.028-.516h1.387v-.098q0-.682-.449-1.055-.448-.373-1.26-.373-.515 0-1.005.124-.488.124-.938.371v-.914q.541-.21 1.051-.313.511-.105.994-.105 1.306 0 1.95.677.645.676.645 2.05M189.194 240.73v3.632h-.989v-3.599q0-.854-.333-1.277-.334-.424-.999-.424-.8 0-1.263.51-.462.509-.462 1.39v3.4h-.994v-6.015h.994v.935q.355-.544.835-.812.481-.268 1.11-.268 1.037 0 1.568.641.533.641.533 1.887M195.122 241.284q0-1.074-.443-1.664-.442-.591-1.243-.591-.794 0-1.238.591-.443.59-.443 1.664 0 1.069.443 1.66.444.591 1.238.591.8 0 1.243-.59.443-.592.443-1.661m.988 2.332q0 1.535-.682 2.284-.68.75-2.088.75-.521 0-.983-.078-.463-.077-.898-.238v-.961q.435.235.86.347.424.113.864.113.973 0 1.456-.507t.483-1.533v-.49q-.306.533-.784.796t-1.144.263q-1.106 0-1.783-.842-.677-.844-.677-2.236 0-1.396.677-2.238.677-.844 1.783-.844.666 0 1.144.263t.784.794v-.912h.988zM198.146 236.004h.988v8.358h-.988zM206.348 241.107v.483h-4.544q.065 1.02.615 1.555t1.533.535q.57 0 1.104-.14.534-.139 1.062-.419v.935q-.533.225-1.092.344-.558.119-1.132.119-1.44 0-2.28-.837-.841-.84-.841-2.27 0-1.476.797-2.342.798-.868 2.152-.868 1.213 0 1.92.782.706.78.706 2.123m-.988-.29q-.01-.81-.454-1.293-.443-.485-1.174-.485-.826 0-1.323.468-.497.467-.573 1.316zM215.437 240.548h-3.417q-.23 1.607.005 2.288.296.839 1.097.839.804 0 1.418-.844.536-.741.897-2.283m.165-.912q.146-1.527-.043-2.063-.294-.849-1.085-.849-.821 0-1.423.839-.473.675-.844 2.073zm-.971-3.718q1.289 0 1.804 1.14.516 1.132.124 3.141-.387 2.004-1.35 3.142-.955 1.145-2.244 1.145-1.294 0-1.805-1.145-.51-1.138-.123-3.142.392-2.009 1.342-3.142.957-1.14 2.252-1.14"/><path d="M0 0h-3.5" style="stroke:currentColor;stroke-width:.8" transform="translate(51.096 202.266)"/><path d="M19.61 205.457h1.773v-6.119l-1.929.387v-.988l1.918-.387h1.085v7.107h1.772v.913H19.61zM28.74 199.065q-.837 0-1.26.825-.42.823-.42 2.478 0 1.649.42 2.474.423.825 1.26.825.844 0 1.265-.825.423-.825.423-2.474 0-1.655-.423-2.478-.42-.825-1.265-.825m0-.86q1.35 0 2.061 1.068.712 1.066.712 3.095 0 2.025-.712 3.092-.711 1.066-2.06 1.066-1.348 0-2.06-1.066-.711-1.067-.711-3.092 0-2.03.711-3.095.712-1.067 2.06-1.067M33.164 199.425h4.82v.639h-4.82zM41.71 197.207l-1.917 2.997h1.917zm-.2-.662h.956v3.659h.801v.631h-.801v1.324h-.756v-1.324h-2.533v-.732z"/><path d="M0 0h-3.5" style="stroke:currentColor;stroke-width:.8" transform="translate(51.096 119.375)"/><path d="M19.61 122.557h1.773v-6.119l-1.929.387v-.988l1.918-.387h1.085v7.107h1.772v.913H19.61zM28.74 116.165q-.837 0-1.26.825-.42.823-.42 2.479 0 1.648.42 2.473.423.825 1.26.825.844 0 1.265-.825.423-.825.423-2.473 0-1.656-.423-2.479-.42-.825-1.265-.825m0-.86q1.35 0 2.061 1.068.712 1.066.712 3.096 0 2.024-.712 3.092-.711 1.065-2.06 1.065-1.348 0-2.06-1.065-.711-1.068-.711-3.092 0-2.03.711-3.096.712-1.067 2.06-1.067M33.164 116.525h4.82v.64h-4.82zM41.925 116.232q.545.117.85.486.307.368.307.91 0 .83-.572 1.286-.571.454-1.624.454-.352 0-.726-.07-.375-.07-.773-.209v-.732q.315.184.69.277.377.094.788.094.713 0 1.087-.281t.374-.82q0-.496-.347-.776-.348-.28-.968-.28h-.654v-.624h.684q.56 0 .857-.224t.297-.645q0-.432-.307-.663-.305-.232-.877-.232-.312 0-.67.068-.357.068-.785.21v-.676q.433-.12.81-.18.378-.061.713-.061.865 0 1.368.393T42.95 115q0 .466-.267.788-.267.32-.76.445"/><path d="M0 0h-3.5" style="stroke:currentColor;stroke-width:.8" transform="translate(51.096 36.484)"/><path d="M19.61 39.666h1.773v-6.118l-1.929.386v-.988l1.918-.387h1.085v7.107h1.772v.913H19.61zM28.74 33.274q-.837 0-1.26.825-.42.824-.42 2.479 0 1.648.42 2.473.423.825 1.26.825.844 0 1.265-.825.423-.825.423-2.473 0-1.655-.423-2.479-.42-.825-1.265-.825m0-.86q1.35 0 2.061 1.068.712 1.066.712 3.096 0 2.024-.712 3.092-.711 1.065-2.06 1.065-1.348 0-2.06-1.065-.711-1.068-.711-3.092 0-2.03.711-3.096.712-1.067 2.06-1.067M33.164 33.635h4.82v.638h-4.82zM40.277 35.73h2.651v.638h-3.564v-.639q.432-.447 1.178-1.2.747-.755.939-.974.364-.409.509-.693t.145-.558q0-.448-.314-.73t-.818-.282q-.357 0-.754.124-.396.124-.847.377v-.768q.458-.184.856-.278.4-.094.73-.094.873 0 1.391.437.519.435.519 1.165 0 .346-.13.656-.129.31-.472.73-.094.11-.598.631-.503.521-1.42 1.457"/><path d="M0 0h-2" style="stroke:currentColor;stroke-width:.6" transform="translate(51.096 210.299)"/><path d="M0 0h-2" style="stroke:currentColor;stroke-width:.6" transform="translate(51.096 206.059)"/><path d="M0 0h-2" style="stroke:currentColor;stroke-width:.6" transform="translate(51.096 177.313)"/><path d="M0 0h-2" style="stroke:currentColor;stroke-width:.6" transform="translate(51.096 162.717)"/><path d="M0 0h-2" style="stroke:currentColor;stroke-width:.6" transform="translate(51.096 152.36)"/><path d="M0 0h-2" style="stroke:currentColor;stroke-width:.6" transform="translate(51.096 144.328)"/><path d="M0 0h-2" style="stroke:currentColor;stroke-width:.6" transform="translate(51.096 137.764)"/><path d="M0 0h-2" style="stroke:currentColor;stroke-width:.6" transform="translate(51.096 132.215)"/><path d="M0 0h-2" style="stroke:currentColor;stroke-width:.6" transform="translate(51.096 127.408)"/><path d="M0 0h-2" style="stroke:currentColor;stroke-width:.6" transform="translate(51.096 123.168)"/><path d="M0 0h-2" style="stroke:currentColor;stroke-width:.6" transform="translate(51.096 94.422)"/><path d="M0 0h-2" style="stroke:currentColor;stroke-width:.6" transform="translate(51.096 79.826)"/><path d="M0 0h-2" style="stroke:currentColor;stroke-width:.6" transform="translate(51.096 69.47)"/><path d="M0 0h-2" style="stroke:currentColor;stroke-width:.6" transform="translate(51.096 61.437)"/><path d="M0 0h-2" style="stroke:currentColor;stroke-width:.6" transform="translate(51.096 54.873)"/><path d="M0 0h-2" style="stroke:currentColor;stroke-width:.6" transform="translate(51.096 49.324)"/><path d="M0 0h-2" style="stroke:currentColor;stroke-width:.6" transform="translate(51.096 44.517)"/><path d="M0 0h-2" style="stroke:currentColor;stroke-width:.6" transform="translate(51.096 40.277)"/><path d="M0 0h-2" style="stroke:currentColor;stroke-width:.6" transform="translate(51.096 11.531)"/><path d="M7.098 176.98q-.667-.37-.983-.886-.317-.516-.317-1.214 0-.94.659-1.45.656-.511 1.87-.511h3.631v.993H8.36q-.864 0-1.282.308-.42.306-.42.933 0 .769.511 1.216.509.445 1.39.445h3.4v.993H8.36q-.87 0-1.285.306-.416.306-.416.945 0 .758.512 1.205.512.445 1.389.445h3.4v.994H5.942v-.994h.935q-.554-.338-.817-.81t-.263-1.123q0-.657.334-1.116.331-.459.966-.679M8.703 165.803h.483v4.544q1.02-.065 1.555-.615t.535-1.533q0-.57-.14-1.104-.139-.534-.419-1.062h.935q.225.533.344 1.091.119.56.119 1.133 0 1.44-.837 2.28-.84.841-2.27.841-1.476 0-2.342-.797-.868-.798-.868-2.152 0-1.213.782-1.92.78-.706 2.123-.706m-.29.988q-.81.01-1.293.454-.485.443-.485 1.174 0 .826.468 1.323.467.497 1.316.572zM6.855 160.223H3.6v-.988h8.358v.988h-.902q.536.31.797.787.262.474.262 1.141 0 1.09-.87 1.776-.871.684-2.29.684-1.417 0-2.287-.684-.87-.686-.87-1.776 0-.667.262-1.141.26-.476.795-.787m2.1 3.367q1.09 0 1.71-.449.621-.448.621-1.232t-.62-1.234q-.62-.452-1.71-.452t-1.71.452q-.621.45-.621 1.234t.62 1.232 1.71.449M5.943 157.199v-.989h6.015v.989zm-2.343 0v-.989h1.253v.989zM8.935 151.408q0 1.198.273 1.66.274.463.935.463.526 0 .836-.348.307-.347.307-.941 0-.824-.582-1.32-.583-.497-1.549-.497h-.22zm-.41-1.971h3.433v.988h-.912q.546.338.807.844.262.505.262 1.236 0 .923-.52 1.47-.518.544-1.388.544-1.014 0-1.53-.679-.515-.68-.515-2.028v-1.387h-.098q-.683 0-1.056.448-.373.45-.373 1.26 0 .516.124 1.006.124.488.371.938h-.914q-.21-.541-.313-1.052-.105-.51-.105-.993 0-1.306.677-1.95.676-.645 2.05-.645M8.327 142.4h3.631v.989H8.36q-.854 0-1.277.333-.424.333-.424.999 0 .8.51 1.263.509.462 1.39.462h3.4v.994H5.943v-.994h.935q-.543-.356-.812-.835-.268-.481-.268-1.11 0-1.037.641-1.568.641-.533 1.888-.533M6.866 133.448q-.097.167-.141.363-.047.196-.047.431 0 .839.545 1.287.545.449 1.566.449h3.17v.993H5.942v-.993h.935q-.549-.313-.813-.811-.267-.5-.267-1.215 0-.102.014-.226.012-.123.04-.273zM8.703 127.513h.483v4.544q1.02-.065 1.555-.615t.535-1.533q0-.57-.14-1.104-.139-.534-.419-1.062h.935q.225.533.344 1.091.119.559.119 1.133 0 1.44-.837 2.28-.84.841-2.27.841-1.476 0-2.342-.797-.868-.798-.868-2.152 0-1.214.782-1.92.78-.706 2.123-.706m-.29.988q-.81.01-1.293.454-.485.443-.485 1.174 0 .826.468 1.323.467.497 1.316.572zM3.6 125.891v-.988h8.358v.988zM8.935 120.1q0 1.198.273 1.66.274.463.935.463.526 0 .836-.347.307-.347.307-.942 0-.823-.582-1.32-.583-.497-1.549-.497h-.22zm-.41-1.971h3.433v.988h-.912q.546.339.807.844.262.505.262 1.236 0 .923-.52 1.47-.518.544-1.388.544-1.014 0-1.53-.679-.515-.68-.515-2.028v-1.387h-.098q-.683 0-1.056.449-.373.448-.373 1.26 0 .515.124 1.005.124.488.371.939h-.914q-.21-.542-.313-1.052-.105-.51-.105-.994 0-1.306.677-1.95.676-.645 2.05-.645M4.234 115.116h1.709v-2.035h.768v2.035h3.266q.735 0 .945-.2.21-.202.21-.82v-1.015h.826v1.014q0 1.145-.426 1.58-.428.435-1.555.435H6.71v.725h-.768v-.725H4.234zM5.943 111.781v-.988h6.015v.988zm-2.343 0v-.988h1.253v.988zM5.943 109.433v-1.047l5.048-1.88-5.048-1.88v-1.047l6.015 2.257v1.342zM8.703 97.07h.483v4.544q1.02-.066 1.555-.616t.535-1.533q0-.569-.14-1.103-.139-.535-.419-1.062h.935q.225.532.344 1.091t.119 1.133q0 1.44-.837 2.28-.84.84-2.27.84-1.476 0-2.342-.797-.868-.797-.868-2.151 0-1.214.782-1.92.78-.707 2.123-.707m-.29.988q-.81.01-1.293.453-.485.444-.485 1.174 0 .827.468 1.324.467.496 1.316.572zM3.6 88.905h.823v.946q0 .53.215.739.215.206.774.206h.53v-1.628h.769v1.628h5.247v.994H6.711v.945h-.768v-.945h-.42q-1.003 0-1.462-.468-.461-.467-.461-1.482zM6.635 85.748q0 .794.62 1.256.621.463 1.7.463 1.08 0 1.7-.46t.62-1.26q0-.79-.621-1.25-.624-.463-1.698-.463-1.07 0-1.695.463-.626.46-.626 1.25m-.837 0q0-1.29.839-2.025.837-.737 2.319-.737 1.476 0 2.318.737.84.736.84 2.025 0 1.294-.84 2.028-.842.732-2.318.732-1.482 0-2.319-.732-.839-.734-.839-2.028M6.866 77.863q-.097.167-.141.363-.047.196-.047.431 0 .839.545 1.287.545.449 1.566.449h3.17v.993H5.942v-.993h.935q-.549-.313-.813-.811-.267-.5-.267-1.215 0-.102.014-.226.012-.123.04-.273zM6.173 72.744h.925q-.232.42-.348.84-.115.422-.115.851 0 .963.61 1.496.609.53 1.71.53 1.102 0 1.712-.53.609-.533.609-1.496 0-.43-.115-.85-.115-.422-.347-.84h.914q.192.413.289.857.098.441.098.942 0 1.36-.855 2.16-.854.8-2.304.8-1.472 0-2.314-.809-.844-.81-.844-2.217 0-.455.095-.89.093-.435.28-.844M8.703 65.88h.483v4.544q1.02-.065 1.555-.615t.535-1.533q0-.57-.14-1.104-.139-.534-.419-1.062h.935q.225.533.344 1.092.119.558.119 1.132 0 1.44-.837 2.281-.84.84-2.27.84-1.476 0-2.342-.797-.868-.798-.868-2.152 0-1.213.782-1.92.78-.706 2.123-.706m-.29.988q-.81.01-1.293.454-.485.443-.485 1.174 0 .826.468 1.323.467.497 1.316.573zM8.703 55.616h.483v4.544q1.02-.065 1.555-.615t.535-1.533q0-.57-.14-1.104-.139-.534-.419-1.062h.935q.225.533.344 1.091.119.559.119 1.133 0 1.44-.837 2.28-.84.841-2.27.841-1.476 0-2.342-.797-.868-.798-.868-2.152 0-1.214.782-1.92.78-.706 2.123-.706m-.29.988q-.81.01-1.293.454-.485.443-.485 1.174 0 .826.468 1.323.467.497 1.316.572zM6.866 50.508q-.097.167-.141.363-.047.196-.047.431 0 .84.545 1.288t1.566.448h3.17v.994H5.942v-.994h.935q-.549-.312-.813-.81-.267-.501-.267-1.216 0-.101.014-.225.012-.124.04-.273zM6.866 46.178q-.097.167-.141.363-.047.196-.047.431 0 .84.545 1.288t1.566.448h3.17v.994H5.942v-.994h.935q-.549-.312-.813-.81-.267-.501-.267-1.216 0-.101.014-.225.012-.124.04-.273zM6.635 43.058q0 .795.62 1.257.621.462 1.7.462 1.08 0 1.7-.459.62-.46.62-1.26 0-.79-.621-1.25-.624-.463-1.698-.463-1.07 0-1.695.462-.626.46-.626 1.251m-.837 0q0-1.289.839-2.024.837-.738 2.319-.738 1.476 0 2.318.738.84.735.84 2.024 0 1.295-.84 2.029-.842.732-2.318.732-1.482 0-2.319-.732-.839-.734-.839-2.029M6.866 35.173q-.097.167-.141.363-.047.196-.047.432 0 .838.545 1.287t1.566.448h3.17v.994H5.942v-.994h.935q-.549-.312-.813-.81-.267-.5-.267-1.216 0-.101.014-.225.012-.124.04-.273z"/><path d="m62.164 125.833 52.891-28.599 41.026-21.444 61.862-30.426 65.576-32.188" clip-path="url(#l05error_mono_vs_quad-p531ec39dcd)" style="fill:none;stroke:#2b7fd6;stroke-width:1.5;stroke-linecap:square"/><g clip-path="url(#l05error_mono_vs_quad-p531ec39dcd)"><path d="M0 3a3 3 0 1 0 0-6 3 3 0 0 0 0 6z" style="fill:#2b7fd6;stroke:#2b7fd6" transform="translate(62.164 125.833)"/><path d="M0 3a3 3 0 1 0 0-6 3 3 0 0 0 0 6z" style="fill:#2b7fd6;stroke:#2b7fd6" transform="translate(115.055 97.234)"/><path d="M0 3a3 3 0 1 0 0-6 3 3 0 0 0 0 6z" style="fill:#2b7fd6;stroke:#2b7fd6" transform="translate(156.081 75.79)"/><path d="M0 3a3 3 0 1 0 0-6 3 3 0 0 0 0 6z" style="fill:#2b7fd6;stroke:#2b7fd6" transform="translate(217.943 45.364)"/><path d="M0 3a3 3 0 1 0 0-6 3 3 0 0 0 0 6z" style="fill:#2b7fd6;stroke:#2b7fd6" transform="translate(283.519 13.176)"/></g><path d="m62.164 204.696 52.891-44.206 41.026-31.336 61.862-44.056 65.576-47.058" clip-path="url(#l05error_mono_vs_quad-p531ec39dcd)" style="fill:none;stroke:#c0392b;stroke-width:1.5;stroke-linecap:square"/><g clip-path="url(#l05error_mono_vs_quad-p531ec39dcd)"><path d="M-3 3h6v-6h-6z" style="fill:#c0392b;stroke:#c0392b;stroke-linejoin:miter" transform="translate(62.164 204.696)"/><path d="M-3 3h6v-6h-6z" style="fill:#c0392b;stroke:#c0392b;stroke-linejoin:miter" transform="translate(115.055 160.49)"/><path d="M-3 3h6v-6h-6z" style="fill:#c0392b;stroke:#c0392b;stroke-linejoin:miter" transform="translate(156.081 129.154)"/><path d="M-3 3h6v-6h-6z" style="fill:#c0392b;stroke:#c0392b;stroke-linejoin:miter" transform="translate(217.943 85.098)"/><path d="M-3 3h6v-6h-6z" style="fill:#c0392b;stroke:#c0392b;stroke-linejoin:miter" transform="translate(283.519 38.04)"/></g><path d="m62.164 204.696 52.891-41.425 41.026-32.132 61.862-48.45 65.576-51.36" clip-path="url(#l05error_mono_vs_quad-p531ec39dcd)" style="fill:none;stroke-dasharray:1.6,2.64;stroke-dashoffset:0;stroke:gray;stroke-width:1.6"/><path d="M51.096 214.272V3.6" style="fill:none;stroke:currentColor;stroke-width:.8;stroke-linejoin:miter;stroke-linecap:square"/><path d="M51.096 214.272h243.49" style="fill:none;stroke:currentColor;stroke-width:.8;stroke-linejoin:miter;stroke-linecap:square"/><g style="fill:gray"><path d="M199.7 127.253q.725 0 1.16-1.055-.558-1.151-1.16-1.151-.44 0-.664.316-.238.338-.238.786 0 .492.238.796.246.308.664.308m3.146.009v.579h-.338q-.32 0-.558-.13-.238-.12-.466-.397-.136-.158-.351-.528-.296.528-.554.761-.321.281-.831.281-.594 0-.985-.444-.412-.466-.412-1.235 0-.738.412-1.239.366-.444.994-.444.321 0 .557.132.277.145.467.395.176.225.352.528.294-.528.552-.76.322-.281.831-.281h.33v.575h-.282q-.65 0-1.16 1.055.558 1.152 1.16 1.152zM209.663 125.727h-2.796q-.188 1.315.004 1.872.242.686.897.686.659 0 1.16-.69.44-.606.735-1.868m.135-.746q.12-1.25-.035-1.688-.241-.695-.888-.695-.672 0-1.164.687-.387.552-.69 1.696zm-.795-3.042q1.055 0 1.477.932.422.927.1 2.57-.315 1.64-1.103 2.571-.782.937-1.837.937-1.058 0-1.476-.937-.418-.93-.101-2.57.32-1.644 1.098-2.57.783-.933 1.842-.933M214.134 121.35l-1.57 2.453h1.57zm-.163-.54h.781v2.993h.656v.517h-.656v1.082h-.618v-1.082h-2.073v-.6z"/></g><path d="M59.196 15.389h18" style="fill:none;stroke:#2b7fd6;stroke-width:1.5;stroke-linecap:square"/><path d="M0 3a3 3 0 1 0 0-6 3 3 0 0 0 0 6z" style="fill:#2b7fd6;stroke:#2b7fd6" transform="translate(68.196 15.389)"/><path d="M89.076 14.562q.304-.546.726-.805.421-.258.992-.258.77 0 1.187.538.418.537.418 1.53v2.972h-.813v-2.945q0-.707-.252-1.05-.25-.342-.763-.342-.629 0-.994.417t-.365 1.138v2.782H88.4v-2.945q0-.712-.25-1.052-.251-.34-.774-.34-.62 0-.986.419-.364.419-.364 1.136v2.782h-.813v-4.922h.813v.765q.277-.453.664-.668.386-.215.918-.215.537 0 .912.272.376.272.556.79M95.918 14.183q-.65 0-1.028.508t-.378 1.39.375 1.392q.377.507 1.03.507.648 0 1.025-.509.378-.51.378-1.39 0-.874-.378-1.386-.377-.512-1.024-.512m0-.684q1.055 0 1.656.686.604.685.604 1.897 0 1.208-.604 1.897-.601.688-1.656.688-1.059 0-1.66-.688-.599-.69-.599-1.897 0-1.212.6-1.897.6-.686 1.659-.686M103.61 15.567v2.972h-.81v-2.945q0-.699-.272-1.045-.273-.347-.817-.347-.655 0-1.033.417-.379.417-.379 1.138v2.782h-.813v-4.922h.813v.765q.291-.445.684-.664t.908-.22q.848 0 1.283.525.436.525.436 1.544M107.128 14.183q-.65 0-1.028.508t-.378 1.39.376 1.392 1.03.507q.647 0 1.024-.509.378-.51.378-1.39 0-.874-.378-1.386-.377-.512-1.024-.512m0-.684q1.055 0 1.657.686.603.685.603 1.897 0 1.208-.603 1.897-.602.688-1.657.688-1.059 0-1.66-.688-.598-.69-.598-1.897 0-1.212.599-1.897.6-.686 1.66-.686M111.51 17.8v2.61h-.813v-6.793h.813v.746q.256-.438.644-.65.39-.214.93-.214.896 0 1.456.711.561.712.561 1.872t-.56 1.873q-.56.712-1.458.712-.54 0-.93-.214-.387-.214-.643-.653m2.752-1.718q0-.892-.367-1.4t-1.009-.507-1.01.508q-.366.507-.366 1.399 0 .891.367 1.4.367.507 1.01.507.64 0 1.008-.508.367-.508.367-1.4M118.348 14.183q-.65 0-1.028.508-.379.508-.379 1.39 0 .884.376 1.392.377.507 1.03.507.647 0 1.024-.509.379-.51.379-1.39 0-.874-.379-1.386-.377-.512-1.023-.512m0-.684q1.054 0 1.656.686.603.685.603 1.897 0 1.208-.603 1.897-.602.688-1.656.688-1.06 0-1.66-.688-.599-.69-.599-1.897 0-1.212.6-1.897.6-.686 1.659-.686M121.947 11.7h.809v6.839h-.809zM128.658 15.875v.395h-3.718q.053.836.503 1.273t1.255.437q.465 0 .902-.114.438-.113.87-.343v.765q-.437.185-.894.282t-.926.097q-1.179 0-1.866-.685-.688-.687-.688-1.857 0-1.207.652-1.916.653-.71 1.761-.71.993 0 1.57.64.579.638.579 1.736m-.809-.237q-.008-.663-.371-1.058-.363-.397-.96-.397-.677 0-1.083.383-.407.382-.469 1.077z"/><path d="M59.196 28.599h18" style="fill:none;stroke:#c0392b;stroke-width:1.5;stroke-linecap:square"/><path d="M-3 3h6v-6h-6z" style="fill:#c0392b;stroke:#c0392b;stroke-linejoin:miter" transform="translate(68.196 28.599)"/><path d="M89.076 27.772q.304-.546.726-.804.421-.26.992-.26.77 0 1.187.54.418.537.418 1.53v2.97h-.813v-2.944q0-.707-.252-1.049-.25-.343-.763-.343-.629 0-.994.418-.365.416-.365 1.137v2.782H88.4v-2.945q0-.711-.25-1.052-.251-.34-.774-.34-.62 0-.986.42-.364.418-.364 1.135v2.782h-.813v-4.922h.813v.765q.277-.453.664-.668.386-.215.918-.215.537 0 .912.273.376.271.556.79M95.918 27.394q-.65 0-1.028.507-.378.508-.378 1.391t.375 1.391q.377.508 1.03.508.648 0 1.025-.51.378-.51.378-1.389 0-.875-.378-1.386-.377-.512-1.024-.512m0-.685q1.055 0 1.656.686.604.685.604 1.897 0 1.208-.604 1.897-.601.688-1.656.688-1.059 0-1.66-.688-.599-.689-.599-1.897 0-1.212.6-1.897.6-.686 1.659-.686M103.61 28.777v2.972h-.81v-2.945q0-.699-.272-1.045-.273-.347-.817-.347-.655 0-1.033.418-.379.416-.379 1.137v2.782h-.813v-4.922h.813v.765q.291-.444.684-.664t.908-.22q.848 0 1.283.525.436.525.436 1.544M107.128 27.394q-.65 0-1.028.507-.378.508-.378 1.391t.376 1.391 1.03.508q.647 0 1.024-.51.378-.51.378-1.389 0-.875-.378-1.386-.377-.512-1.024-.512m0-.685q1.055 0 1.657.686.603.685.603 1.897 0 1.208-.603 1.897-.602.688-1.657.688-1.059 0-1.66-.688-.598-.689-.598-1.897 0-1.212.599-1.897.6-.686 1.66-.686M111.51 31.01v2.61h-.813v-6.793h.813v.747q.256-.439.644-.651.39-.214.93-.214.896 0 1.456.711.561.712.561 1.872t-.56 1.873q-.56.712-1.458.712-.54 0-.93-.214-.387-.214-.643-.652m2.752-1.718q0-.891-.367-1.399t-1.009-.508-1.01.508q-.366.508-.366 1.4 0 .89.367 1.398t1.01.508q.64 0 1.008-.508.367-.507.367-1.399M118.348 27.394q-.65 0-1.028.507-.379.508-.379 1.391t.376 1.391q.377.508 1.03.508.647 0 1.024-.51.379-.51.379-1.389 0-.875-.379-1.386-.377-.512-1.023-.512m0-.685q1.054 0 1.656.686.603.685.603 1.897 0 1.208-.603 1.897-.602.688-1.656.688-1.06 0-1.66-.688-.599-.689-.599-1.897 0-1.212.6-1.897.6-.686 1.659-.686M121.947 24.91h.809v6.839h-.809zM128.658 29.085v.396h-3.718q.053.835.503 1.272t1.255.438q.465 0 .902-.114.438-.114.87-.343v.765q-.437.184-.894.28-.457.098-.926.098-1.179 0-1.866-.685-.688-.686-.688-1.856 0-1.208.652-1.917.653-.71 1.761-.71.993 0 1.57.64.579.638.579 1.736m-.809-.237q-.008-.663-.371-1.058-.363-.396-.96-.396-.677 0-1.083.382-.407.383-.469 1.077zM136.138 26.106v2.448h2.446v.747h-2.446v2.448h-.739V29.3h-2.448v-.747h2.448v-2.448zM143.731 29.292q0 .892.367 1.4t1.008.507 1.01-.508q.37-.507.37-1.399 0-.891-.37-1.399-.368-.508-1.01-.508-.64 0-1.008.508-.367.508-.367 1.4m2.755 1.719q-.255.438-.644.652-.388.214-.934.214-.891 0-1.453-.712-.56-.713-.56-1.873t.56-1.872q.562-.711 1.453-.711.546 0 .934.214.39.212.644.65v-.746h.809v6.794h-.81zM148.877 29.807v-2.98h.809v2.949q0 .699.271 1.049.273.349.819.349.654 0 1.033-.418.381-.418.381-1.139v-2.79H153v4.922h-.809v-.757q-.294.449-.683.667-.388.218-.903.218-.848 0-1.288-.527-.439-.528-.439-1.543M156.902 29.275q-.98 0-1.359.224-.378.223-.378.765 0 .43.284.683.284.252.77.252.674 0 1.08-.477.407-.476.407-1.267v-.18zm1.613-.334v2.808h-.809v-.747q-.277.447-.69.661-.414.214-1.012.214-.755 0-1.202-.425t-.446-1.136q0-.83.556-1.252.557-.422 1.66-.422h1.134v-.08q0-.558-.367-.863t-1.03-.305q-.423 0-.823.101t-.768.304v-.748q.443-.172.86-.256.418-.086.813-.086 1.069 0 1.596.554.528.553.528 1.678M163.418 27.574V24.91h.809v6.839h-.809v-.738q-.254.438-.644.652-.388.214-.934.214-.891 0-1.452-.712-.56-.713-.56-1.873t.56-1.872 1.452-.711q.546 0 .934.214.39.212.644.65m-2.755 1.718q0 .892.367 1.4t1.009.507q.64 0 1.01-.508.369-.507.369-1.399 0-.891-.37-1.399-.368-.508-1.01-.508-.64 0-1.008.508-.367.508-.367 1.4M168.744 27.582q-.136-.079-.296-.115-.16-.038-.353-.038-.687 0-1.054.446-.367.445-.367 1.28v2.594h-.813v-4.922h.813v.765q.256-.449.664-.665.41-.218.994-.218.083 0 .184.011.102.01.224.032zM169.51 29.807v-2.98h.808v2.949q0 .699.272 1.049.272.349.818.349.654 0 1.034-.418t.38-1.139v-2.79h.81v4.922h-.81v-.757q-.293.449-.683.667-.388.218-.903.218-.848 0-1.288-.527-.438-.528-.438-1.543M176.079 31.01v2.61h-.813v-6.793h.813v.747q.255-.439.644-.651.39-.214.93-.214.896 0 1.456.711.561.712.561 1.872t-.561 1.873q-.56.712-1.457.712-.54 0-.93-.214-.388-.214-.643-.652m2.752-1.718q0-.891-.367-1.399-.368-.508-1.009-.508-.642 0-1.01.508-.366.508-.366 1.4 0 .89.367 1.398t1.01.508q.64 0 1.008-.508.367-.507.367-1.399M182.916 27.394q-.65 0-1.028.507-.378.508-.378 1.391t.376 1.391q.377.508 1.03.508.647 0 1.024-.51.378-.51.378-1.389 0-.875-.378-1.386-.377-.512-1.024-.512m0-.685q1.055 0 1.657.686.603.685.603 1.897 0 1.208-.603 1.897-.602.688-1.657.688-1.058 0-1.659-.688-.599-.689-.599-1.897 0-1.212.599-1.897.6-.686 1.66-.686M186.516 24.91h.808v6.839h-.808zM193.227 29.085v.396h-3.718q.053.835.503 1.272t1.254.438q.466 0 .903-.114.438-.114.87-.343v.765q-.437.184-.894.28-.457.098-.926.098-1.179 0-1.867-.685-.687-.686-.687-1.856 0-1.208.652-1.917.653-.71 1.76-.71.994 0 1.572.64.578.638.578 1.736m-.809-.237q-.008-.663-.371-1.058-.363-.396-.96-.396-.677 0-1.083.382-.407.383-.469 1.077z"/><path d="M343.285 214.272h243.49V3.6h-243.49z" style="fill:none"/><path d="M0 0v3.5" style="stroke:currentColor;stroke-width:.8" transform="translate(354.353 214.272)"/><path d="M349.102 222.326q-.837 0-1.26.825-.42.823-.42 2.478 0 1.648.42 2.473.423.825 1.26.825.844 0 1.265-.825.423-.825.423-2.473 0-1.655-.423-2.478-.421-.825-1.265-.825m0-.86q1.35 0 2.06 1.068.712 1.065.712 3.095 0 2.025-.711 3.092-.712 1.066-2.061 1.066-1.347 0-2.059-1.066t-.712-3.092q0-2.03.712-3.095.712-1.068 2.059-1.068M353.78 228.266h1.135v1.364h-1.135zM360.565 225.306q.778.167 1.215.694t.438 1.3q0 1.186-.816 1.837-.817.65-2.32.65-.504 0-1.039-.1t-1.103-.3v-1.046q.45.263.987.397t1.124.134q1.019 0 1.553-.402.535-.402.535-1.17 0-.71-.497-1.109-.497-.4-1.382-.4h-.935v-.892h.978q.8 0 1.224-.32.425-.32.425-.921 0-.617-.439-.947-.436-.332-1.253-.332-.447 0-.957.098-.51.096-1.122.299v-.966q.618-.172 1.158-.258t1.018-.086q1.235 0 1.954.562.72.56.72 1.516 0 .667-.382 1.126-.381.459-1.084.636"/><path d="M0 0v3.5" style="stroke:currentColor;stroke-width:.8" transform="translate(407.244 214.272)"/><path d="M401.994 222.326q-.837 0-1.26.825-.421.823-.421 2.478 0 1.648.42 2.473.424.825 1.26.825.844 0 1.266-.825t.422-2.473q0-1.655-.422-2.478-.422-.825-1.265-.825m0-.86q1.349 0 2.06 1.068.712 1.065.712 3.095 0 2.025-.712 3.092-.711 1.066-2.06 1.066-1.348 0-2.06-1.066-.711-1.067-.711-3.092 0-2.03.711-3.095.712-1.068 2.06-1.068M406.672 228.266h1.134v1.364h-1.134zM413.15 222.556l-2.74 4.281h2.74zm-.285-.945h1.365v5.226h1.144v.903h-1.144v1.89h-1.08v-1.89h-3.62v-1.047z"/><path d="M0 0v3.5" style="stroke:currentColor;stroke-width:.8" transform="translate(448.27 214.272)"/><path d="M443.02 222.326q-.838 0-1.26.825-.422.823-.422 2.478 0 1.648.422 2.473t1.26.825q.843 0 1.264-.825.423-.825.423-2.473 0-1.655-.423-2.478-.42-.825-1.265-.825m0-.86q1.349 0 2.06 1.068.712 1.065.712 3.095 0 2.025-.712 3.092-.711 1.066-2.06 1.066-1.348 0-2.06-1.066-.711-1.067-.711-3.092 0-2.03.711-3.095.712-1.068 2.06-1.068M447.698 228.266h1.134v1.364h-1.134zM451.206 221.61h4.26v.915H452.2v1.964q.235-.08.47-.12.238-.04.475-.04 1.342 0 2.126.736.786.736.786 1.992 0 1.295-.807 2.013-.806.717-2.272.717-.505 0-1.03-.086-.522-.086-1.08-.258v-1.091q.483.262.998.391.516.13 1.09.13.93 0 1.471-.489.543-.488.543-1.327 0-.837-.543-1.325-.541-.49-1.471-.49-.435 0-.868.097-.431.096-.882.3z"/><path d="M0 0v3.5" style="stroke:currentColor;stroke-width:.8" transform="translate(510.132 214.272)"/><path d="M504.881 222.326q-.837 0-1.26.825-.42.823-.42 2.478 0 1.648.42 2.473.423.825 1.26.825.844 0 1.265-.825.423-.825.423-2.473 0-1.655-.423-2.478-.42-.825-1.265-.825m0-.86q1.35 0 2.061 1.068.712 1.065.712 3.095 0 2.025-.712 3.092-.712 1.066-2.06 1.066t-2.06-1.066q-.711-1.067-.711-3.092 0-2.03.711-3.095.712-1.068 2.06-1.068M509.56 228.266h1.134v1.364h-1.135zM512.783 221.61h5.156v.463l-2.912 7.557h-1.132l2.74-7.105h-3.852z"/><path d="M0 0v3.5" style="stroke:currentColor;stroke-width:.8" transform="translate(575.708 214.272)"/><path d="M573.573 228.718h1.773v-6.12l-1.929.388v-.989l1.918-.386h1.085v7.107h1.772v.912h-4.619zM424.013 239.04q-.795 0-1.257.62t-.462 1.7.459 1.7 1.26.62q.79 0 1.25-.622.463-.624.463-1.699 0-1.069-.462-1.694-.46-.626-1.251-.626m0-.838q1.289 0 2.024.839.738.837.738 2.318 0 1.477-.738 2.32-.735.84-2.024.84-1.295 0-2.029-.84-.732-.843-.732-2.32 0-1.481.732-2.318.734-.839 2.029-.839M429.367 243.46v3.19h-.993v-8.303h.993v.912q.313-.536.788-.796t1.136-.26q1.096 0 1.78.869.686.87.686 2.287 0 1.418-.686 2.29-.684.87-1.78.87-.66 0-1.136-.262-.475-.26-.788-.797m3.364-2.1q0-1.09-.449-1.71-.448-.621-1.232-.621-.785 0-1.234.62t-.449 1.71.45 1.71 1.233.621q.784 0 1.232-.62.45-.62.45-1.71M440.54 241.107v.483h-4.544q.065 1.02.615 1.555t1.533.535q.57 0 1.104-.14.534-.139 1.062-.419v.935q-.533.225-1.091.344-.56.119-1.133.119-1.44 0-2.28-.837-.841-.84-.841-2.27 0-1.476.797-2.342.798-.868 2.152-.868 1.213 0 1.92.782.706.78.706 2.123m-.988-.29q-.01-.81-.454-1.293-.443-.485-1.174-.485-.826 0-1.323.468-.497.467-.572 1.316zM447.163 240.73v3.632h-.988v-3.599q0-.854-.333-1.277-.334-.424-.999-.424-.8 0-1.263.51-.463.509-.463 1.39v3.4h-.993v-6.015h.993v.935q.356-.544.836-.812.481-.268 1.11-.268 1.037 0 1.568.641t.532 1.887M449.134 238.347h.988v6.015h-.988zm0-2.343h.988v1.253h-.988zM457.191 240.73v3.632h-.988v-3.599q0-.854-.333-1.277-.334-.424-.999-.424-.801 0-1.263.51-.463.509-.463 1.39v3.4h-.993v-6.015h.993v.935q.356-.544.836-.812t1.11-.268q1.036 0 1.567.641.533.641.533 1.887M463.12 241.284q0-1.074-.444-1.664-.441-.591-1.242-.591-.794 0-1.238.591-.443.59-.443 1.664 0 1.069.443 1.66.444.591 1.238.591.8 0 1.242-.59.444-.592.444-1.661m.988 2.332q0 1.535-.682 2.284-.681.75-2.089.75-.52 0-.983-.078-.462-.077-.897-.238v-.961q.435.235.86.347.424.113.864.113.973 0 1.456-.507t.483-1.533v-.49q-.306.533-.784.796t-1.145.263q-1.105 0-1.782-.842-.677-.844-.677-2.236 0-1.396.677-2.238.677-.844 1.782-.844.667 0 1.145.263t.784.794v-.912h.988zM472.375 241.339q-1.198 0-1.66.273-.463.273-.463.935 0 .526.347.835.348.308.942.308.824 0 1.32-.583.497-.582.497-1.548v-.22zm1.971-.41v3.433h-.988v-.913q-.339.547-.844.808-.505.262-1.236.262-.923 0-1.47-.52-.544-.519-.544-1.388 0-1.014.679-1.53.68-.516 2.028-.516h1.387v-.098q0-.682-.449-1.055-.448-.373-1.26-.373-.515 0-1.005.124-.488.124-.938.371v-.914q.541-.21 1.052-.313.51-.105.993-.105 1.306 0 1.95.677.645.676.645 2.05M481.383 240.73v3.632h-.989v-3.599q0-.854-.333-1.277-.333-.424-.999-.424-.8 0-1.263.51-.462.509-.462 1.39v3.4h-.994v-6.015h.994v.935q.356-.544.835-.812.481-.268 1.11-.268 1.037 0 1.568.641.533.641.533 1.887M487.311 241.284q0-1.074-.443-1.664-.442-.591-1.243-.591-.794 0-1.238.591-.443.59-.443 1.664 0 1.069.443 1.66.444.591 1.238.591.8 0 1.243-.59.443-.592.443-1.661m.988 2.332q0 1.535-.682 2.284-.68.75-2.088.75-.521 0-.983-.078-.463-.077-.898-.238v-.961q.435.235.86.347.424.113.864.113.973 0 1.456-.507t.483-1.533v-.49q-.306.533-.784.796-.477.263-1.144.263-1.106 0-1.783-.842-.677-.844-.677-2.236 0-1.396.677-2.238.677-.844 1.783-.844.667 0 1.144.263.478.263.784.794v-.912h.988zM490.335 236.004h.988v8.358h-.988zM498.537 241.107v.483h-4.544q.065 1.02.615 1.555t1.533.535q.57 0 1.104-.14.534-.139 1.062-.419v.935q-.533.225-1.091.344-.559.119-1.133.119-1.44 0-2.28-.837-.841-.84-.841-2.27 0-1.476.797-2.342.798-.868 2.152-.868 1.213 0 1.92.782.706.78.706 2.123m-.988-.29q-.01-.81-.454-1.293-.443-.485-1.174-.485-.826 0-1.323.468-.497.467-.572 1.316zM507.626 240.548h-3.417q-.23 1.607.005 2.288.296.839 1.097.839.804 0 1.418-.844.536-.741.897-2.283m.165-.912q.146-1.527-.043-2.063-.294-.849-1.085-.849-.821 0-1.423.839-.472.675-.844 2.073zm-.971-3.718q1.289 0 1.804 1.14.516 1.132.124 3.141-.387 2.004-1.349 3.142-.956 1.145-2.245 1.145-1.294 0-1.804-1.145-.51-1.138-.124-3.142.392-2.009 1.342-3.142.958-1.14 2.252-1.14"/><path d="M0 0h-3.5" style="stroke:currentColor;stroke-width:.8" transform="translate(343.285 164.193)"/><path d="M311.8 167.375h1.772v-6.119l-1.929.387v-.988l1.918-.387h1.085v7.107h1.772v.913H311.8zM320.93 160.983q-.838 0-1.26.825-.421.823-.421 2.478 0 1.649.42 2.474.423.825 1.26.825.844 0 1.266-.825t.422-2.474q0-1.655-.422-2.478-.422-.825-1.265-.825m0-.86q1.349 0 2.06 1.068.712 1.066.712 3.095 0 2.025-.712 3.092-.711 1.066-2.06 1.066-1.348 0-2.06-1.066-.711-1.067-.711-3.092 0-2.03.711-3.095.712-1.067 2.06-1.067M325.353 161.343h4.82v.64h-4.82zM334.114 161.05q.545.116.85.486.307.368.307.91 0 .83-.571 1.285-.572.455-1.625.455-.352 0-.726-.07-.375-.07-.773-.209v-.733q.315.185.69.278.377.094.788.094.713 0 1.087-.281t.374-.82q0-.497-.347-.776-.348-.28-.968-.28h-.654v-.624h.685q.559 0 .856-.224t.297-.645q0-.432-.306-.663t-.878-.232q-.312 0-.67.068-.357.068-.785.21v-.676q.433-.12.81-.18.378-.061.713-.061.865 0 1.368.393t.504 1.062q0 .466-.267.788-.267.32-.76.445"/><path d="M0 0h-3.5" style="stroke:currentColor;stroke-width:.8" transform="translate(343.285 90.18)"/><path d="M311.8 93.363h1.772v-6.12l-1.929.388v-.989l1.918-.386h1.085v7.107h1.772v.912H311.8zM320.93 86.97q-.838 0-1.26.826-.421.823-.421 2.478 0 1.648.42 2.473.423.825 1.26.825.844 0 1.266-.825t.422-2.473q0-1.655-.422-2.478-.422-.825-1.265-.825m0-.859q1.349 0 2.06 1.068.712 1.065.712 3.095 0 2.025-.712 3.092-.711 1.066-2.06 1.066-1.348 0-2.06-1.066-.711-1.067-.711-3.092 0-2.03.711-3.095.712-1.068 2.06-1.068M325.353 87.33h4.82v.64h-4.82zM332.467 89.425h2.65v.64h-3.564v-.64q.432-.447 1.178-1.2.747-.755.939-.974.364-.409.509-.693t.145-.558q0-.447-.314-.729-.314-.283-.818-.283-.357 0-.754.124-.396.124-.847.377v-.768q.458-.184.856-.278.4-.094.73-.094.873 0 1.391.437.519.436.519 1.165 0 .346-.13.657-.129.309-.472.73-.093.11-.598.63-.502.521-1.42 1.457"/><path d="M0 0h-3.5" style="stroke:currentColor;stroke-width:.8" transform="translate(343.285 16.168)"/><path d="M311.8 19.36h1.772v-6.12l-1.929.387v-.988l1.918-.387h1.085v7.107h1.772v.913H311.8zM320.93 12.967q-.838 0-1.26.825-.421.823-.421 2.478 0 1.649.42 2.474.423.825 1.26.825.844 0 1.266-.825t.422-2.474q0-1.655-.422-2.478-.422-.825-1.265-.825m0-.86q1.349 0 2.06 1.068.712 1.066.712 3.095 0 2.025-.712 3.093-.711 1.065-2.06 1.065-1.348 0-2.06-1.065-.711-1.068-.711-3.093 0-2.03.711-3.095.712-1.067 2.06-1.067M325.353 13.327h4.82v.64h-4.82zM331.944 15.422h1.24v-4.283l-1.35.27v-.691l1.344-.271h.759v4.975h1.24v.639h-3.233zM303.98 202.767h-.988q.195-.41.296-.827.101-.42.101-.823 0-1.074-.721-1.64-.722-.567-2.195-.648.462.311.71.79t.247 1.058q0 1.203-.727 1.904-.729.701-1.992.701-1.234 0-1.98-.73-.748-.73-.748-1.944 0-1.392 1.068-2.124 1.065-.734 3.095-.734 1.896 0 3.027.9 1.13.9 1.13 2.419 0 .409-.08.828-.08.418-.242.87m-3.399-2.159q0-.73-.498-1.157-.5-.428-1.372-.428-.865 0-1.366.428-.502.427-.502 1.157t.502 1.157q.501.426 1.366.426.871 0 1.372-.426.498-.426.498-1.157M303.98 195.768h-.988q.195-.409.296-.826.101-.42.101-.824 0-1.074-.721-1.64-.722-.567-2.195-.647.462.31.71.79.247.478.247 1.057 0 1.203-.727 1.905-.729.7-1.992.7-1.234 0-1.98-.73-.748-.73-.748-1.943 0-1.393 1.068-2.125 1.065-.734 3.095-.734 1.896 0 3.027.9 1.13.9 1.13 2.42 0 .408-.08.828-.08.417-.242.87m-3.399-2.158q0-.73-.498-1.157-.5-.428-1.372-.428-.865 0-1.366.428-.502.426-.502 1.157 0 .73.502 1.156.501.427 1.366.427.871 0 1.372-.427.498-.426.498-1.156M296.423 187.964h1.709v-2.035h.768v2.035h3.266q.735 0 .945-.201t.21-.82v-1.014h.826v1.014q0 1.144-.426 1.58-.428.434-1.555.434H298.9v.725h-.768v-.725h-1.709zM300.516 179.627h3.631v.988h-3.599q-.854 0-1.277.334-.424.333-.424.998 0 .801.51 1.264.509.462 1.39.462h3.4v.993h-8.358v-.993h3.278q-.543-.356-.812-.835-.268-.482-.268-1.11 0-1.037.641-1.568.642-.533 1.888-.533M303.245 173.205h3.19v.993h-8.303v-.993h.912q-.536-.313-.795-.787-.262-.476-.262-1.136 0-1.097.87-1.781.87-.686 2.288-.686t2.29.686q.869.684.869 1.78 0 .66-.261 1.137-.262.474-.798.787m-2.1-3.364q-1.09 0-1.71.449-.62.448-.62 1.232 0 .786.62 1.234.62.449 1.71.449t1.71-.449.62-1.234q0-.784-.62-1.232-.62-.449-1.71-.449M300.892 162.032h.483v4.544q1.021-.065 1.555-.615.535-.55.535-1.533 0-.569-.14-1.103-.138-.535-.419-1.063h.935q.226.533.344 1.092.119.558.119 1.132 0 1.44-.837 2.281-.839.84-2.269.84-1.476 0-2.343-.797-.868-.797-.868-2.152 0-1.213.782-1.92.78-.706 2.123-.706m-.29.988q-.81.01-1.293.454-.485.444-.485 1.174 0 .827.468 1.323.467.497 1.316.573zM299.055 156.925q-.097.167-.141.362-.047.196-.047.432 0 .839.545 1.287.545.449 1.566.449h3.17v.993h-6.016v-.993h.935q-.549-.313-.813-.811-.267-.5-.267-1.216 0-.101.014-.225.012-.124.04-.273zM298.362 151.806h.925q-.232.42-.347.84-.116.421-.116.851 0 .963.61 1.495.609.532 1.71.532 1.102 0 1.713-.532.608-.532.608-1.495 0-.43-.115-.85-.115-.422-.347-.841h.914q.193.414.289.858.098.441.098.941 0 1.36-.854 2.16-.855.8-2.305.8-1.472 0-2.314-.808-.844-.81-.844-2.217 0-.455.095-.89.093-.435.28-.844M300.892 144.942h.483v4.544q1.021-.065 1.555-.615.535-.55.535-1.533 0-.57-.14-1.104-.138-.534-.419-1.062h.935q.226.533.344 1.091.119.559.119 1.133 0 1.44-.837 2.28-.839.841-2.269.841-1.476 0-2.343-.797-.868-.798-.868-2.152 0-1.214.782-1.92.78-.706 2.123-.706m-.29.988q-.81.01-1.293.454-.485.443-.485 1.174 0 .826.468 1.323.467.497 1.316.572zM300.516 138.318h3.631v.989h-3.599q-.854 0-1.277.333-.424.334-.424.999 0 .8.51 1.263.509.462 1.39.462h3.4v.994h-6.015v-.994h.935q-.543-.355-.812-.835-.268-.481-.268-1.11 0-1.037.641-1.568.642-.533 1.888-.533M296.423 135.37h1.709v-2.035h.768v2.035h3.266q.735 0 .945-.2.21-.202.21-.82v-1.015h.826v1.014q0 1.145-.426 1.58-.428.435-1.555.435H298.9v.725h-.768v-.725h-1.709zM298.132 132.035v-.988h6.015v.988zm-2.343 0v-.988h1.253v.988zM295.79 128.98v-.99h8.357v.99zM300.892 120.777h.483v4.544q1.021-.065 1.555-.615.535-.55.535-1.533 0-.569-.14-1.103-.138-.535-.419-1.063h.935q.226.533.344 1.092.119.558.119 1.132 0 1.44-.837 2.281-.839.84-2.269.84-1.476 0-2.343-.797-.868-.797-.868-2.152 0-1.213.782-1.92.78-.706 2.123-.706m-.29.988q-.81.01-1.293.454-.485.444-.485 1.174 0 .827.468 1.323.467.497 1.316.573zM299.055 112.173q-.097.167-.141.363-.047.196-.047.431 0 .84.545 1.288t1.566.448h3.17v.994h-6.016v-.994h.935q-.549-.313-.813-.811-.267-.5-.267-1.215 0-.102.014-.225.012-.124.04-.274zM300.892 106.238h.483v4.544q1.021-.065 1.555-.615.535-.55.535-1.533 0-.569-.14-1.104-.138-.534-.419-1.062h.935q.226.533.344 1.092.119.558.119 1.132 0 1.44-.837 2.281-.839.84-2.269.84-1.476 0-2.343-.797-.868-.797-.868-2.152 0-1.213.782-1.92.78-.706 2.123-.706m-.29.988q-.81.01-1.293.454-.485.443-.485 1.174 0 .827.468 1.323.467.497 1.316.573zM295.79 104.616v-.988h8.357v.988zM301.124 98.826q0 1.198.273 1.66.274.462.935.462.526 0 .836-.347.307-.347.307-.942 0-.823-.582-1.32-.583-.496-1.549-.496h-.22zm-.409-1.972h3.432v.989h-.912q.546.338.808.843.26.506.26 1.236 0 .923-.518 1.47-.52.545-1.389.545-1.014 0-1.53-.68-.515-.68-.515-2.027v-1.387h-.098q-.683 0-1.056.448-.373.449-.373 1.26 0 .516.124 1.005t.371.939h-.914q-.21-.542-.313-1.052-.105-.51-.105-.993 0-1.307.678-1.951.675-.645 2.05-.645M296.423 93.842h1.709v-2.035h.768v2.035h3.266q.735 0 .945-.202.21-.2.21-.82v-1.013h.826v1.014q0 1.144-.426 1.58-.428.434-1.555.434H298.9v.725h-.768v-.725h-1.709zM298.132 90.506v-.988h6.015v.988zm-2.343 0v-.988h1.253v.988zM298.132 88.158v-1.046l5.048-1.88-5.048-1.88v-1.048l6.015 2.257v1.342zM300.892 75.795h.483v4.544q1.021-.065 1.555-.615.535-.55.535-1.533 0-.57-.14-1.104-.138-.534-.419-1.062h.935q.226.533.344 1.091.119.559.119 1.133 0 1.44-.837 2.28-.839.841-2.269.841-1.476 0-2.343-.797-.868-.798-.868-2.152 0-1.214.782-1.92.78-.706 2.123-.706m-.29.988q-.81.01-1.293.454-.485.443-.485 1.174 0 .826.468 1.323.467.497 1.316.572zM295.79 67.63h.822v.946q0 .531.215.74.215.205.774.205h.53v-1.627h.769v1.627h5.247v.994H298.9v.945h-.768v-.945h-.42q-1.003 0-1.462-.468-.46-.467-.46-1.481zM298.824 64.473q0 .794.62 1.257.621.462 1.7.462 1.08 0 1.7-.459.621-.46.621-1.26 0-.79-.622-1.251-.624-.462-1.698-.462-1.07 0-1.695.462-.626.46-.626 1.251m-.837 0q0-1.289.84-2.024.836-.738 2.318-.738 1.476 0 2.318.738.84.735.84 2.024 0 1.294-.84 2.028-.842.733-2.318.733-1.482 0-2.319-.733-.839-.734-.839-2.028M299.055 56.588q-.097.167-.141.363-.047.196-.047.431 0 .84.545 1.288t1.566.448h3.17v.994h-6.016v-.994h.935q-.549-.313-.813-.811-.267-.5-.267-1.215 0-.102.014-.225.012-.124.04-.274zM298.362 51.47h.925q-.232.419-.347.84-.116.42-.116.85 0 .963.61 1.496.609.531 1.71.531 1.102 0 1.713-.531.608-.533.608-1.495 0-.43-.115-.851t-.347-.84h.914q.193.414.289.857.098.442.098.942 0 1.36-.854 2.16-.855.8-2.305.8-1.472 0-2.314-.808-.844-.81-.844-2.217 0-.456.095-.89.093-.436.28-.845M300.892 44.605h.483v4.544q1.021-.065 1.555-.615.535-.55.535-1.533 0-.569-.14-1.103-.138-.535-.419-1.063h.935q.226.533.344 1.092.119.558.119 1.132 0 1.44-.837 2.281-.839.84-2.269.84-1.476 0-2.343-.797-.868-.797-.868-2.152 0-1.213.782-1.92.78-.706 2.123-.706m-.29.988q-.81.01-1.293.454-.485.444-.485 1.174 0 .827.468 1.323.467.497 1.316.573zM300.892 34.341h.483v4.544q1.021-.065 1.555-.615.535-.55.535-1.533 0-.569-.14-1.104-.138-.534-.419-1.062h.935q.226.533.344 1.092.119.558.119 1.132 0 1.44-.837 2.281-.839.84-2.269.84-1.476 0-2.343-.797-.868-.797-.868-2.152 0-1.213.782-1.92.78-.706 2.123-.706m-.29.988q-.81.01-1.293.454-.485.443-.485 1.174 0 .827.468 1.323.467.497 1.316.573zM299.055 29.234q-.097.166-.141.362-.047.196-.047.432 0 .839.545 1.287.545.449 1.566.449h3.17v.993h-6.016v-.993h.935q-.549-.313-.813-.812-.267-.5-.267-1.215 0-.101.014-.225.012-.124.04-.273zM299.055 24.904q-.097.166-.141.362-.047.196-.047.432 0 .839.545 1.287.545.449 1.566.449h3.17v.993h-6.016v-.993h.935q-.549-.313-.813-.812-.267-.5-.267-1.215 0-.101.014-.225.012-.124.04-.273zM298.824 21.784q0 .794.62 1.256.621.463 1.7.463 1.08 0 1.7-.46.621-.46.621-1.26 0-.79-.622-1.25-.624-.463-1.698-.463-1.07 0-1.695.463-.626.46-.626 1.25m-.837 0q0-1.29.84-2.025.836-.737 2.318-.737 1.476 0 2.318.737.84.736.84 2.025 0 1.294-.84 2.028-.842.732-2.318.732-1.482 0-2.319-.732-.839-.734-.839-2.028M299.055 13.899q-.097.167-.141.362-.047.196-.047.432 0 .839.545 1.287.545.449 1.566.449h3.17v.993h-6.016v-.993h.935q-.549-.313-.813-.811-.267-.5-.267-1.216 0-.101.014-.225.012-.124.04-.273z"/><path d="m354.353 138.013 52.891-30.79 41.026-27.897 61.862-35.197 65.576-30.953" clip-path="url(#l05error_mono_vs_quad-p54cf769ec1)" style="fill:none;stroke:#2b7fd6;stroke-width:1.5;stroke-linecap:square"/><g clip-path="url(#l05error_mono_vs_quad-p54cf769ec1)"><path d="M0 3a3 3 0 1 0 0-6 3 3 0 0 0 0 6z" style="fill:#2b7fd6;stroke:#2b7fd6" transform="translate(354.353 138.013)"/><path d="M0 3a3 3 0 1 0 0-6 3 3 0 0 0 0 6z" style="fill:#2b7fd6;stroke:#2b7fd6" transform="translate(407.244 107.223)"/><path d="M0 3a3 3 0 1 0 0-6 3 3 0 0 0 0 6z" style="fill:#2b7fd6;stroke:#2b7fd6" transform="translate(448.27 79.326)"/><path d="M0 3a3 3 0 1 0 0-6 3 3 0 0 0 0 6z" style="fill:#2b7fd6;stroke:#2b7fd6" transform="translate(510.132 44.13)"/><path d="M0 3a3 3 0 1 0 0-6 3 3 0 0 0 0 6z" style="fill:#2b7fd6;stroke:#2b7fd6" transform="translate(575.708 13.176)"/></g><path d="m354.353 204.696 52.891-36.997 41.026-33.994 61.862-50.866 65.576-47.592" clip-path="url(#l05error_mono_vs_quad-p54cf769ec1)" style="fill:none;stroke:#c0392b;stroke-width:1.5;stroke-linecap:square"/><g clip-path="url(#l05error_mono_vs_quad-p54cf769ec1)"><path d="M-3 3h6v-6h-6z" style="fill:#c0392b;stroke:#c0392b;stroke-linejoin:miter" transform="translate(354.353 204.696)"/><path d="M-3 3h6v-6h-6z" style="fill:#c0392b;stroke:#c0392b;stroke-linejoin:miter" transform="translate(407.244 167.699)"/><path d="M-3 3h6v-6h-6z" style="fill:#c0392b;stroke:#c0392b;stroke-linejoin:miter" transform="translate(448.27 133.705)"/><path d="M-3 3h6v-6h-6z" style="fill:#c0392b;stroke:#c0392b;stroke-linejoin:miter" transform="translate(510.132 82.84)"/><path d="M-3 3h6v-6h-6z" style="fill:#c0392b;stroke:#c0392b;stroke-linejoin:miter" transform="translate(575.708 35.247)"/></g><path d="M343.285 214.272V3.6" style="fill:none;stroke:currentColor;stroke-width:.8;stroke-linejoin:miter;stroke-linecap:square"/><path d="M343.285 214.272h243.49" style="fill:none;stroke:currentColor;stroke-width:.8;stroke-linejoin:miter;stroke-linecap:square"/><defs><clipPath id="l05error_mono_vs_quad-p531ec39dcd"><path d="M51.096 3.6h243.491v210.672H51.096z"/></clipPath><clipPath id="l05error_mono_vs_quad-p54cf769ec1"><path d="M343.285 3.6h243.491v210.672H343.285z"/></clipPath></defs></svg>