<svg xmlns="http://www.w3.org/2000/svg" width="541.236" height="348.336" fill="currentColor" viewBox="0 0 405.927 261.252"><defs><style>*{stroke-linejoin:round;stroke-linecap:butt}</style></defs><path fill="none" d="M0 261.252h405.927V0H0z"/><path fill="none" d="M51.096 225.36h345.96V3.6H51.096z"/><path stroke="currentColor" stroke-width=".8" d="M66.821 225.36v3.5"/><path d="M60.787 236.394q.778.167 1.215.694t.438 1.3q0 1.186-.816 1.837-.817.65-2.32.65-.504 0-1.039-.1t-1.103-.3v-1.046q.45.263.987.397.538.134 1.124.134 1.019 0 1.553-.402.535-.402.535-1.17 0-.71-.497-1.109-.497-.4-1.382-.4h-.935v-.892h.978q.8 0 1.224-.32.425-.32.425-.921 0-.617-.439-.947-.436-.332-1.253-.332-.447 0-.957.098-.51.096-1.122.299v-.966q.618-.172 1.158-.258t1.018-.086q1.235 0 1.954.562.72.56.72 1.516 0 .667-.382 1.126-.381.459-1.084.636M66.818 233.414q-.837 0-1.26.825-.421.823-.421 2.478 0 1.648.42 2.473.424.825 1.26.825.845 0 1.266-.825.423-.825.423-2.473 0-1.655-.423-2.478-.421-.825-1.265-.825m0-.86q1.349 0 2.06 1.068.712 1.065.712 3.095 0 2.025-.711 3.092-.712 1.066-2.061 1.066t-2.06-1.066q-.71-1.067-.71-3.092 0-2.03.71-3.095.712-1.068 2.06-1.068M73.816 233.414q-.837 0-1.26.825-.42.823-.42 2.478 0 1.648.42 2.473.423.825 1.26.825.844 0 1.265-.825.423-.825.423-2.473 0-1.655-.423-2.478-.42-.825-1.265-.825m0-.86q1.35 0 2.061 1.068.712 1.065.712 3.095 0 2.025-.712 3.092-.712 1.066-2.06 1.066t-2.06-1.066q-.711-1.067-.711-3.092 0-2.03.711-3.095.712-1.068 2.06-1.068"/><path stroke="currentColor" stroke-width=".8" d="M132.005 225.36v3.5"/><path d="M119.372 239.806h1.772v-6.12l-1.928.388v-.989l1.918-.386h1.084v7.107h1.772v.912h-4.618zM128.502 233.414q-.837 0-1.26.825-.421.823-.421 2.478 0 1.648.421 2.473.423.825 1.26.825.844 0 1.265-.825.423-.825.423-2.473 0-1.655-.423-2.478-.421-.825-1.265-.825m0-.86q1.35 0 2.06 1.068.712 1.065.712 3.095 0 2.025-.711 3.092-.712 1.066-2.061 1.066t-2.06-1.066q-.71-1.067-.71-3.092 0-2.03.71-3.095.712-1.068 2.06-1.068M135.5 233.414q-.837 0-1.26.825-.42.823-.42 2.478 0 1.648.42 2.473.423.825 1.26.825.844 0 1.265-.825.423-.825.423-2.473 0-1.655-.423-2.478-.42-.825-1.265-.825m0-.86q1.35 0 2.061 1.068.712 1.065.712 3.095 0 2.025-.712 3.092-.711 1.066-2.06 1.066-1.348 0-2.06-1.066-.711-1.067-.711-3.092 0-2.03.711-3.095.712-1.068 2.06-1.068M142.499 233.414q-.837 0-1.26.825-.421.823-.421 2.478 0 1.648.421 2.473.423.825 1.26.825.844 0 1.265-.825.423-.825.423-2.473 0-1.655-.423-2.478-.421-.825-1.265-.825m0-.86q1.35 0 2.06 1.068.712 1.065.712 3.095 0 2.025-.711 3.092-.712 1.066-2.061 1.066t-2.06-1.066q-.71-1.067-.71-3.092 0-2.03.71-3.095.712-1.068 2.06-1.068"/><path stroke="currentColor" stroke-width=".8" d="M191.484 225.36v3.5"/><path d="M181.95 236.394q.779.167 1.215.694.439.526.439 1.3 0 1.186-.817 1.837-.816.65-2.32.65-.504 0-1.038-.1-.535-.1-1.104-.3v-1.046q.45.263.987.397.538.134 1.124.134 1.02 0 1.554-.402t.534-1.17q0-.71-.496-1.109-.497-.4-1.382-.4h-.935v-.892h.978q.799 0 1.223-.32t.425-.921q0-.617-.438-.947-.437-.332-1.253-.332-.447 0-.958.098-.51.096-1.122.299v-.966q.619-.172 1.158-.258.54-.086 1.018-.086 1.236 0 1.954.562.72.56.72 1.516 0 .667-.381 1.126-.382.459-1.085.636M187.981 233.414q-.837 0-1.26.825-.42.823-.42 2.478 0 1.648.42 2.473.423.825 1.26.825.844 0 1.265-.825.423-.825.423-2.473 0-1.655-.423-2.478-.42-.825-1.265-.825m0-.86q1.35 0 2.06 1.068.712 1.065.712 3.095 0 2.025-.711 3.092-.712 1.066-2.06 1.066t-2.06-1.066q-.711-1.067-.711-3.092 0-2.03.711-3.095.712-1.068 2.06-1.068M194.98 233.414q-.837 0-1.26.825-.421.823-.421 2.478 0 1.648.42 2.473.424.825 1.26.825.845 0 1.266-.825t.422-2.473q0-1.655-.422-2.478-.421-.825-1.265-.825m0-.86q1.349 0 2.06 1.068.712 1.065.712 3.095 0 2.025-.712 3.092-.711 1.066-2.06 1.066-1.348 0-2.06-1.066-.71-1.067-.71-3.092 0-2.03.71-3.095.712-1.068 2.06-1.068M201.978 233.414q-.837 0-1.26.825-.42.823-.42 2.478 0 1.648.42 2.473.423.825 1.26.825.844 0 1.265-.825.423-.825.423-2.473 0-1.655-.423-2.478-.42-.825-1.265-.825m0-.86q1.35 0 2.061 1.068.712 1.065.712 3.095 0 2.025-.712 3.092-.712 1.066-2.06 1.066t-2.06-1.066q-.711-1.067-.711-3.092 0-2.03.711-3.095.712-1.068 2.06-1.068"/><path stroke="currentColor" stroke-width=".8" d="M256.668 225.36v3.5"/><path d="M240.536 239.806h1.772v-6.12l-1.929.388v-.989l1.918-.386h1.085v7.107h1.772v.912h-4.618zM249.665 233.414q-.837 0-1.26.825-.42.823-.42 2.478 0 1.648.42 2.473.423.825 1.26.825.844 0 1.265-.825.423-.825.423-2.473 0-1.655-.423-2.478-.42-.825-1.265-.825m0-.86q1.35 0 2.061 1.068.712 1.065.712 3.095 0 2.025-.712 3.092-.711 1.066-2.06 1.066-1.348 0-2.06-1.066-.711-1.067-.711-3.092 0-2.03.711-3.095.712-1.068 2.06-1.068M256.664 233.414q-.837 0-1.26.825-.421.823-.421 2.478 0 1.648.421 2.473.423.825 1.26.825.844 0 1.265-.825.423-.825.423-2.473 0-1.655-.423-2.478-.421-.825-1.265-.825m0-.86q1.349 0 2.06 1.068.712 1.065.712 3.095 0 2.025-.711 3.092-.712 1.066-2.061 1.066t-2.06-1.066q-.71-1.067-.71-3.092 0-2.03.71-3.095.712-1.068 2.06-1.068M263.662 233.414q-.837 0-1.26.825-.42.823-.42 2.478 0 1.648.42 2.473.423.825 1.26.825.844 0 1.265-.825.423-.825.423-2.473 0-1.655-.423-2.478-.42-.825-1.265-.825m0-.86q1.35 0 2.061 1.068.712 1.065.712 3.095 0 2.025-.712 3.092-.711 1.066-2.06 1.066-1.348 0-2.06-1.066-.711-1.067-.711-3.092 0-2.03.711-3.095.712-1.068 2.06-1.068M270.66 233.414q-.836 0-1.259.825-.421.823-.421 2.478 0 1.648.421 2.473.423.825 1.26.825.844 0 1.265-.825.423-.825.423-2.473 0-1.655-.423-2.478-.421-.825-1.265-.825m0-.86q1.35 0 2.062 1.068.711 1.065.711 3.095 0 2.025-.711 3.092-.712 1.066-2.061 1.066t-2.06-1.066q-.71-1.067-.71-3.092 0-2.03.71-3.095.712-1.068 2.06-1.068"/><path stroke="currentColor" stroke-width=".8" d="M381.33 225.36v3.5"/><path d="M361.699 239.806h1.772v-6.12l-1.928.388v-.989l1.918-.386h1.084v7.107h1.772v.912H361.7zM370.829 233.414q-.837 0-1.26.825-.421.823-.421 2.478 0 1.648.42 2.473.424.825 1.26.825.845 0 1.266-.825.423-.825.423-2.473 0-1.655-.423-2.478-.421-.825-1.265-.825m0-.86q1.349 0 2.06 1.068.712 1.065.712 3.095 0 2.025-.712 3.092-.711 1.066-2.06 1.066-1.348 0-2.06-1.066-.71-1.067-.71-3.092 0-2.03.71-3.095.712-1.068 2.06-1.068M377.827 233.414q-.837 0-1.26.825-.42.823-.42 2.478 0 1.648.42 2.473.423.825 1.26.825.844 0 1.265-.825.423-.825.423-2.473 0-1.655-.423-2.478-.42-.825-1.265-.825m0-.86q1.35 0 2.061 1.068.712 1.065.712 3.095 0 2.025-.712 3.092-.712 1.066-2.06 1.066t-2.06-1.066q-.711-1.067-.711-3.092 0-2.03.711-3.095.712-1.068 2.06-1.068M384.826 233.414q-.837 0-1.26.825-.421.823-.421 2.478 0 1.648.42 2.473.424.825 1.26.825.845 0 1.266-.825.423-.825.423-2.473 0-1.655-.423-2.478-.421-.825-1.265-.825m0-.86q1.349 0 2.06 1.068.712 1.065.712 3.095 0 2.025-.711 3.092-.712 1.066-2.061 1.066t-2.06-1.066q-.71-1.067-.71-3.092 0-2.03.71-3.095.712-1.068 2.06-1.068M391.824 233.414q-.837 0-1.26.825-.42.823-.42 2.478 0 1.648.42 2.473.423.825 1.26.825.844 0 1.265-.825.423-.825.423-2.473 0-1.655-.423-2.478-.42-.825-1.265-.825m0-.86q1.35 0 2.061 1.068.712 1.065.712 3.095 0 2.025-.712 3.092-.711 1.066-2.06 1.066-1.348 0-2.06-1.066-.711-1.067-.711-3.092 0-2.03.711-3.095.712-1.068 2.06-1.068M398.823 233.414q-.837 0-1.26.825-.421.823-.421 2.478 0 1.648.421 2.473.423.825 1.26.825.844 0 1.265-.825.423-.825.423-2.473 0-1.655-.423-2.478-.421-.825-1.265-.825m0-.86q1.35 0 2.06 1.068.712 1.065.712 3.095 0 2.025-.711 3.092-.712 1.066-2.061 1.066t-2.06-1.066q-.71-1.067-.71-3.092 0-2.03.71-3.095.712-1.068 2.06-1.068M221.04 247.345h1.462l3.556 6.708v-6.708h1.052v8.02h-1.461l-3.555-6.71v6.71h-1.053z"/><path stroke="currentColor" stroke-width=".8" d="M51.096 146.772h-3.5"/><path d="M19.61 149.955h1.773v-6.119l-1.929.387v-.989l1.918-.386h1.085v7.107h1.772v.912H19.61zM28.74 143.563q-.837 0-1.26.825-.42.823-.42 2.478 0 1.648.42 2.473.423.825 1.26.825.844 0 1.265-.825.423-.825.423-2.473 0-1.655-.423-2.478-.42-.825-1.265-.825m0-.86q1.35 0 2.061 1.068.712 1.065.712 3.095 0 2.025-.712 3.092-.711 1.066-2.06 1.066-1.348 0-2.06-1.066-.711-1.067-.711-3.092 0-2.03.711-3.095.712-1.068 2.06-1.068M33.164 143.923h4.82v.639h-4.82zM40.277 146.018h2.651v.638h-3.564v-.638q.432-.448 1.178-1.201.747-.755.939-.973.364-.41.509-.693.145-.284.145-.559 0-.447-.314-.729-.314-.283-.818-.283-.357 0-.754.124-.396.124-.847.377v-.768q.458-.184.856-.278.4-.093.73-.093.873 0 1.391.436.519.436.519 1.165 0 .346-.13.657-.129.309-.472.73-.094.11-.598.63-.503.522-1.42 1.458"/><path stroke="currentColor" stroke-width=".8" d="M51.096 55.893h-3.5"/><path d="M19.61 59.084h1.773v-6.118l-1.929.386v-.988l1.918-.387h1.085v7.107h1.772v.913H19.61zM28.74 52.692q-.837 0-1.26.825-.42.824-.42 2.479 0 1.648.42 2.473.423.825 1.26.825.844 0 1.265-.825.423-.825.423-2.473 0-1.655-.423-2.479-.42-.825-1.265-.825m0-.86q1.35 0 2.061 1.068.712 1.066.712 3.096 0 2.024-.712 3.092-.711 1.065-2.06 1.065-1.348 0-2.06-1.065-.711-1.068-.711-3.092 0-2.03.711-3.096.712-1.067 2.06-1.067M33.164 53.053h4.82v.638h-4.82zM39.755 55.147h1.24v-4.283l-1.35.27v-.691l1.344-.27h.759v4.974h1.24v.639h-3.233zM6.12 189.247h.935q-.215.418-.322.87-.108.45-.108.935 0 .736.225 1.103.225.368.677.368.344 0 .54-.263t.373-1.058l.076-.339q.225-1.052.636-1.495.41-.444 1.146-.444.839 0 1.329.664.488.663.488 1.823 0 .483-.095 1.007-.094.525-.282 1.104h-1.02q.285-.548.427-1.08.141-.53.141-1.053 0-.698-.239-1.073-.239-.376-.673-.376-.403 0-.617.272-.215.27-.415 1.189l-.08.344q-.193.917-.593 1.327-.4.407-1.099.407-.849 0-1.31-.602-.462-.601-.462-1.708 0-.547.081-1.03.08-.484.24-.892M8.703 182.205h.483v4.544q1.02-.065 1.555-.615t.535-1.533q0-.569-.14-1.104-.139-.534-.419-1.062h.935q.225.533.344 1.092.119.558.119 1.132 0 1.44-.837 2.281-.84.84-2.27.84-1.476 0-2.342-.797-.868-.797-.868-2.152 0-1.213.782-1.92.78-.706 2.123-.706m-.29.988q-.81.01-1.293.454-.485.443-.485 1.174 0 .827.468 1.323.467.497 1.316.573zM6.173 176.254h.925q-.232.42-.348.84-.115.421-.115.851 0 .963.61 1.495.609.531 1.71.531 1.102 0 1.712-.53.609-.533.609-1.496 0-.43-.115-.85-.115-.422-.347-.841h.914q.192.414.289.857.098.442.098.942 0 1.36-.855 2.16-.854.8-2.304.8-1.472 0-2.314-.808-.844-.81-.844-2.217 0-.455.095-.89.093-.435.28-.844M6.635 172.205q0 .794.62 1.256.621.463 1.7.463 1.08 0 1.7-.46t.62-1.26q0-.79-.621-1.25-.624-.463-1.698-.463-1.07 0-1.695.463-.626.46-.626 1.25m-.837 0q0-1.29.839-2.025.837-.737 2.319-.737 1.476 0 2.318.737.84.736.84 2.025 0 1.294-.84 2.028-.842.732-2.318.732-1.482 0-2.319-.732-.839-.734-.839-2.028M8.327 162.804h3.631v.988H8.36q-.854 0-1.277.334-.424.333-.424.998 0 .801.51 1.264.509.462 1.39.462h3.4v.993H5.943v-.993h.935q-.543-.356-.812-.835-.268-.482-.268-1.11 0-1.037.641-1.568.641-.533 1.888-.533M6.855 156.876H3.6v-.989h8.358v.989h-.902q.536.31.797.787.262.474.262 1.141 0 1.09-.87 1.775-.871.685-2.29.685-1.417 0-2.287-.685t-.87-1.775q0-.667.262-1.141.26-.476.795-.787m2.1 3.367q1.09 0 1.71-.449.621-.449.621-1.232 0-.784-.62-1.234-.62-.452-1.71-.452t-1.71.452q-.621.45-.621 1.234 0 .783.62 1.232t1.71.449M6.12 150.017h.935q-.215.418-.322.87-.108.45-.108.935 0 .735.225 1.103t.677.368q.344 0 .54-.263t.373-1.059l.076-.339q.225-1.051.636-1.495.41-.443 1.146-.443.839 0 1.329.663.488.664.488 1.824 0 .483-.095 1.007-.094.524-.282 1.103h-1.02q.285-.548.427-1.079.141-.531.141-1.054 0-.697-.239-1.072t-.673-.376q-.403 0-.617.271-.215.27-.415 1.19l-.08.343q-.193.918-.593 1.327-.4.407-1.099.407-.849 0-1.31-.601-.462-.602-.462-1.709 0-.546.081-1.03.08-.484.24-.891M11.056 143.668h3.19v.994H5.943v-.994h.912q-.536-.313-.795-.787-.262-.476-.262-1.136 0-1.097.87-1.78.87-.686 2.288-.686t2.289.685q.87.684.87 1.781 0 .66-.262 1.136-.26.474-.797.787m-2.1-3.363q-1.09 0-1.71.448-.621.449-.621 1.233 0 .785.62 1.234t1.71.448 1.71-.448.621-1.234q0-.784-.62-1.233-.62-.448-1.71-.448M8.703 132.496h.483v4.544q1.02-.065 1.555-.615t.535-1.534q0-.568-.14-1.103-.139-.535-.419-1.062h.935q.225.533.344 1.091.119.559.119 1.133 0 1.44-.837 2.28-.84.841-2.27.841-1.476 0-2.342-.797-.868-.798-.868-2.152 0-1.214.782-1.92.78-.706 2.123-.706m-.29.988q-.81.01-1.293.454-.485.443-.485 1.173 0 .827.468 1.324.467.497 1.316.572zM6.866 127.388q-.097.167-.141.363-.047.196-.047.431 0 .84.545 1.288t1.566.448h3.17v.994H5.942v-.994h.935q-.549-.313-.813-.811-.267-.5-.267-1.215 0-.102.014-.225.012-.124.04-.274zM3.6 119.81h.823v.945q0 .53.215.739.215.206.774.206h.53v-1.628h.769v1.628h5.247v.993H6.711v.946h-.768v-.946h-.42q-1.003 0-1.462-.467-.461-.468-.461-1.482zM6.635 116.652q0 .794.62 1.256.621.462 1.7.462 1.08 0 1.7-.459.62-.46.62-1.26 0-.79-.621-1.25-.624-.463-1.698-.463-1.07 0-1.695.462-.626.461-.626 1.252m-.837 0q0-1.29.839-2.025.837-.737 2.319-.737 1.476 0 2.318.737.84.736.84 2.025 0 1.294-.84 2.028-.842.732-2.318.732-1.482 0-2.319-.732-.839-.734-.839-2.028M6.866 108.767q-.097.166-.141.362-.047.196-.047.432 0 .838.545 1.287t1.566.449h3.17v.993H5.942v-.993h.935q-.549-.313-.813-.812-.267-.5-.267-1.215 0-.101.014-.225.012-.124.04-.273zM6.173 103.648h.925q-.232.42-.348.84-.115.421-.115.851 0 .963.61 1.495.609.531 1.71.531 1.102 0 1.712-.53.609-.533.609-1.496 0-.43-.115-.85-.115-.422-.347-.841h.914q.192.414.289.857.098.442.098.942 0 1.36-.855 2.16-.854.8-2.304.8-1.472 0-2.314-.808-.844-.81-.844-2.217 0-.455.095-.89.093-.435.28-.844M8.703 96.784h.483v4.544q1.02-.065 1.555-.615t.535-1.534q0-.568-.14-1.103-.139-.534-.419-1.062h.935q.225.533.344 1.091.119.559.119 1.133 0 1.44-.837 2.28-.84.841-2.27.841-1.476 0-2.342-.797-.868-.798-.868-2.152 0-1.214.782-1.92.78-.706 2.123-.706m-.29.988q-.81.01-1.293.454-.485.443-.485 1.173 0 .827.468 1.324.467.497 1.316.572zM8.703 86.52h.483v4.544q1.02-.066 1.555-.616t.535-1.533q0-.569-.14-1.103-.139-.535-.419-1.062h.935q.225.532.344 1.091t.119 1.133q0 1.44-.837 2.28-.84.841-2.27.841-1.476 0-2.342-.798-.868-.797-.868-2.151 0-1.214.782-1.92.78-.707 2.123-.707m-.29.988q-.81.01-1.293.453-.485.444-.485 1.174 0 .827.468 1.324.467.496 1.316.572zM5.943 85.606v-1.047l5.048-1.88-5.048-1.88v-1.047l6.015 2.257v1.342zM8.935 75.653q0 1.198.273 1.66.274.463.935.463.526 0 .836-.347.307-.347.307-.942 0-.823-.582-1.32-.583-.497-1.549-.497h-.22zm-.41-1.971h3.433v.988h-.912q.546.339.807.844.262.506.262 1.236 0 .923-.52 1.47-.518.544-1.388.544-1.014 0-1.53-.679-.515-.68-.515-2.028V74.67h-.098q-.683 0-1.056.449-.373.448-.373 1.26 0 .515.124 1.005.124.488.371.939h-.914q-.21-.542-.313-1.052-.105-.51-.105-.994 0-1.306.677-1.95.676-.645 2.05-.645M3.6 71.647v-.988h8.358v.988zM9.585 68.692H5.943v-.988h3.604q.854 0 1.282-.332.426-.333.426-1 0-.799-.51-1.263-.51-.466-1.392-.466h-3.41v-.988h6.015v.988h-.924q.548.36.814.835.267.475.267 1.104 0 1.036-.645 1.574-.644.536-1.885.536M8.935 58.885q0 1.198.273 1.66.274.463.935.463.526 0 .836-.348.307-.347.307-.942 0-.823-.582-1.32-.583-.496-1.549-.496h-.22zm-.41-1.972h3.433v.989h-.912q.546.338.807.844.262.505.262 1.235 0 .923-.52 1.47-.518.545-1.388.545-1.014 0-1.53-.68-.515-.68-.515-2.027v-1.387h-.098q-.683 0-1.056.448-.373.449-.373 1.26 0 .516.124 1.006.124.488.371.938h-.914q-.21-.541-.313-1.052-.105-.51-.105-.993 0-1.306.677-1.951.676-.645 2.05-.645M4.234 53.9h1.709v-2.034h.768V53.9h3.266q.735 0 .945-.201t.21-.82v-1.014h.826v1.014q0 1.144-.426 1.58-.428.434-1.555.434H6.71v.725h-.768v-.725H4.234zM5.943 50.566v-.989h6.015v.989zm-2.343 0v-.989h1.253v.989zM6.635 45.179q0 .794.62 1.256.621.463 1.7.463 1.08 0 1.7-.46t.62-1.26q0-.79-.621-1.25-.624-.463-1.698-.463-1.07 0-1.695.463-.626.46-.626 1.25m-.837 0q0-1.29.839-2.025.837-.737 2.319-.737 1.476 0 2.318.737.84.736.84 2.025 0 1.294-.84 2.028-.842.732-2.318.732-1.482 0-2.319-.732-.839-.734-.839-2.028M8.327 35.778h3.631v.988H8.36q-.854 0-1.277.334-.424.333-.424.998 0 .801.51 1.264.509.462 1.39.462h3.4v.993H5.943v-.993h.935q-.543-.356-.812-.835-.268-.482-.268-1.11 0-1.037.641-1.568.641-.533 1.888-.533"/><path fill="none" stroke="#2b7fd6" stroke-width="1.5" d="m66.821 215.28 65.184-3.655 59.48-8.923 65.183-21.526 59.479-30.818 65.183-42.565" clip-path="url(#timing_pm-pf7eb0fa2e7)" style="stroke-linecap:square"/><g clip-path="url(#timing_pm-pf7eb0fa2e7)"><path fill="#2b7fd6" stroke="#2b7fd6" d="M66.821 218.28a3 3 0 1 0 0-6 3 3 0 0 0 0 6zM132.005 214.625a3 3 0 1 0 0-6 3 3 0 0 0 0 6zM191.484 205.702a3 3 0 1 0 0-6 3 3 0 0 0 0 6zM256.668 184.176a3 3 0 1 0 0-6 3 3 0 0 0 0 6zM316.147 153.358a3 3 0 1 0 0-6 3 3 0 0 0 0 6zM381.33 110.793a3 3 0 1 0 0-6 3 3 0 0 0 0 6z"/></g><path fill="none" stroke="#2e8b57" stroke-width="1.5" d="m66.821 139.065 65.184-.909 59.48-2.195 65.183-6.382 59.479-12.38 65.183-29.04" clip-path="url(#timing_pm-pf7eb0fa2e7)" style="stroke-linecap:square"/><g clip-path="url(#timing_pm-pf7eb0fa2e7)"><path fill="#2e8b57" stroke="#2e8b57" d="M66.821 142.065a3 3 0 1 0 0-6 3 3 0 0 0 0 6zM132.005 141.156a3 3 0 1 0 0-6 3 3 0 0 0 0 6zM191.484 138.961a3 3 0 1 0 0-6 3 3 0 0 0 0 6zM256.668 132.579a3 3 0 1 0 0-6 3 3 0 0 0 0 6zM316.147 120.199a3 3 0 1 0 0-6 3 3 0 0 0 0 6zM381.33 91.159a3 3 0 1 0 0-6 3 3 0 0 0 0 6z"/></g><path fill="none" stroke="#c0392b" stroke-width="1.5" d="m66.821 191.717 65.184-97.404 59.48-80.633" clip-path="url(#timing_pm-pf7eb0fa2e7)" style="stroke-linecap:square"/><g clip-path="url(#timing_pm-pf7eb0fa2e7)"><path fill="#c0392b" stroke="#c0392b" d="M-3 3h6v-6h-6z" style="stroke-linejoin:miter" transform="translate(66.821 191.717)"/><path fill="#c0392b" stroke="#c0392b" d="M-3 3h6v-6h-6z" style="stroke-linejoin:miter" transform="translate(132.005 94.313)"/><path fill="#c0392b" stroke="#c0392b" d="M-3 3h6v-6h-6z" style="stroke-linejoin:miter" transform="translate(191.484 13.68)"/></g><path fill="none" stroke="currentColor" stroke-width=".8" d="M51.096 225.36V3.6" style="stroke-linejoin:miter;stroke-linecap:square"/><path fill="none" stroke="currentColor" stroke-width=".8" d="M51.096 225.36h345.96" style="stroke-linejoin:miter;stroke-linecap:square"/><path fill="none" stroke="#2b7fd6" stroke-width="1.5" d="M274.17 16.74h18" style="stroke-linecap:square"/><path fill="#2b7fd6" stroke="#2b7fd6" d="M283.171 19.74a3 3 0 1 0 0-6 3 3 0 0 0 0 6z"/><path d="M301.141 13.99v2.465h1.117q.62 0 .957-.321.34-.32.34-.914 0-.59-.34-.91-.337-.32-.957-.32zm-.887-.73h2.004q1.104 0 1.668.499.565.499.565 1.46 0 .973-.565 1.469-.564.496-1.668.496h-1.117v2.637h-.887zM305.681 13.26h1.323l1.674 4.464 1.683-4.464h1.323v6.561h-.866V14.06l-1.692 4.5h-.891l-1.692-4.5v5.761h-.862zM313.618 18.705h.927v.756l-.72 1.406h-.567l.36-1.406zM321.937 16.283q.637.136.994.568.359.43.359 1.063 0 .97-.668 1.503t-1.899.532q-.412 0-.85-.082-.436-.081-.902-.244v-.857q.369.216.807.325.44.11.92.11.834 0 1.271-.33.438-.328.438-.957 0-.58-.407-.907t-1.13-.327h-.765v-.73h.8q.654 0 1-.262.348-.261.348-.754 0-.504-.358-.774-.358-.272-1.025-.272-.366 0-.784.08-.417.079-.918.245v-.79q.506-.141.948-.211t.832-.07q1.011 0 1.6.46.588.458.588 1.24 0 .545-.312.92-.312.376-.887.521M325.738 19.074h3.098v.747h-4.166v-.747q.505-.523 1.377-1.403.873-.882 1.097-1.138.426-.478.595-.81.17-.332.17-.652 0-.523-.367-.852-.367-.33-.956-.33-.418 0-.882.144-.463.145-.99.44v-.897q.536-.215 1.001-.325.467-.11.854-.11 1.02 0 1.626.51t.606 1.362q0 .405-.152.768-.15.361-.552.854-.11.127-.698.736-.588.61-1.661 1.703M332.38 13.9q.445.095.695.397.252.301.252.744 0 .68-.468 1.052t-1.329.372q-.288 0-.595-.057-.306-.057-.632-.171v-.6q.258.151.566.228t.643.077q.584 0 .89-.23.306-.231.306-.671 0-.407-.284-.635-.285-.23-.792-.23h-.535v-.51h.56q.458 0 .7-.183.244-.183.244-.528 0-.353-.251-.542-.25-.19-.718-.19-.256 0-.548.056-.292.055-.643.171v-.553q.355-.099.664-.148t.583-.049q.707 0 1.119.322.412.32.412.868 0 .382-.218.645-.219.263-.621.364M341.025 17.303q0-.88-.363-1.362-.361-.484-1.017-.484-.65 0-1.012.484-.363.483-.363 1.361 0 .875.363 1.359t1.012.484q.656 0 1.017-.484.363-.484.363-1.359m.808 1.908q0 1.256-.558 1.869-.557.613-1.708.613-.427 0-.805-.063-.378-.064-.734-.196v-.786q.356.193.703.284.348.093.708.093.796 0 1.19-.415.396-.415.396-1.254v-.401q-.25.436-.641.65-.391.216-.937.216-.904 0-1.458-.689-.554-.69-.554-1.83t.554-1.83q.554-.69 1.458-.69.546 0 .937.214.39.215.64.65v-.747h.81zM346.351 15.654q-.136-.078-.297-.115t-.353-.038q-.686 0-1.053.446t-.367 1.281v2.593h-.813V14.9h.813v.765q.256-.448.664-.665t.994-.218q.083 0 .184.011t.224.033zM347.2 14.9h.808v4.921h-.809zm0-1.918h.808v1.026h-.809zM352.938 15.646v-2.664h.809v6.84h-.809v-.74q-.254.44-.644.653-.388.214-.933.214-.892 0-1.453-.712-.56-.712-.56-1.873 0-1.16.56-1.871.561-.712 1.453-.712.545 0 .933.214.39.212.644.65m-2.754 1.718q0 .892.367 1.4t1.008.507 1.01-.507q.37-.508.37-1.4t-.37-1.399-1.01-.508q-.641 0-1.008.508t-.367 1.4"/><path fill="none" stroke="#2e8b57" stroke-width="1.5" d="M274.17 31.32h18" style="stroke-linecap:square"/><path fill="#2e8b57" stroke="#2e8b57" d="M283.171 34.32a3 3 0 1 0 0-6 3 3 0 0 0 0 6z"/><path d="M301.141 28.57v2.465h1.117q.62 0 .957-.321.34-.32.34-.914 0-.59-.34-.91-.337-.32-.957-.32zm-.887-.73h2.004q1.104 0 1.668.499.565.499.565 1.46 0 .973-.565 1.469-.564.496-1.668.496h-1.117v2.637h-.887zM305.681 27.84h1.323l1.674 4.464 1.683-4.464h1.323V34.4h-.866V28.64l-1.692 4.5h-.891l-1.692-4.5V34.4h-.862zM313.618 33.285h.927v.756l-.72 1.406h-.567l.36-1.406zM321.256 30.767q-.597 0-.948.41-.348.407-.348 1.119 0 .707.348 1.12.35.41.948.41t.947-.41q.348-.413.348-1.12 0-.712-.348-1.12-.35-.409-.947-.409m1.762-2.783v.809q-.334-.158-.675-.24-.34-.085-.675-.085-.879 0-1.343.594-.462.593-.528 1.793.258-.383.65-.587t.861-.204q.989 0 1.563.6.573.6.573 1.632 0 1.011-.597 1.623-.598.61-1.59.61-1.14 0-1.742-.872-.602-.873-.602-2.53 0-1.555.739-2.48.738-.926 1.981-.926.335 0 .675.067.34.066.71.196M327.413 28.613l-2.242 3.503h2.242zm-.234-.773h1.117v4.276h.936v.738h-.936v1.547h-.883v-1.547h-2.962v-.856zM332.38 28.48q.445.095.695.397.252.301.252.744 0 .68-.468 1.052t-1.329.372q-.288 0-.595-.057-.306-.057-.632-.171v-.6q.258.151.566.228t.643.077q.584 0 .89-.23.306-.231.306-.671 0-.407-.284-.635-.285-.23-.792-.23h-.535v-.51h.56q.458 0 .7-.183.244-.183.244-.528 0-.353-.251-.542-.25-.19-.718-.19-.256 0-.548.056-.292.055-.643.171v-.553q.355-.099.664-.148t.583-.049q.707 0 1.119.322.412.32.412.868 0 .382-.218.645-.219.263-.621.364M341.025 31.883q0-.88-.363-1.362-.361-.483-1.017-.483-.65 0-1.012.483-.363.483-.363 1.361 0 .875.363 1.359t1.012.484q.656 0 1.017-.484.363-.484.363-1.358m.808 1.908q0 1.256-.558 1.869-.557.613-1.708.613-.427 0-.805-.063-.378-.064-.734-.196v-.786q.356.193.703.284.348.093.708.093.796 0 1.19-.415.396-.415.396-1.254v-.401q-.25.436-.641.65-.391.216-.937.216-.904 0-1.458-.689-.554-.69-.554-1.83t.554-1.83q.554-.69 1.458-.69.546 0 .937.214.39.215.64.65v-.747h.81zM346.351 30.234q-.136-.078-.297-.115t-.353-.038q-.686 0-1.053.446t-.367 1.281v2.593h-.813V29.48h.813v.765q.256-.448.664-.665t.994-.218q.083 0 .184.011t.224.033zM347.2 29.48h.808V34.4h-.809zm0-1.918h.808v1.026h-.809zM352.938 30.226v-2.663h.809V34.4h-.809v-.738q-.254.439-.644.652-.388.214-.933.214-.892 0-1.453-.712-.56-.712-.56-1.873 0-1.16.56-1.871.561-.712 1.453-.712.545 0 .933.214.39.212.644.65m-2.754 1.718q0 .892.367 1.4t1.008.507 1.01-.507q.37-.508.37-1.4t-.37-1.399-1.01-.508q-.641 0-1.008.508t-.367 1.4"/><path fill="none" stroke="#c0392b" stroke-width="1.5" d="M274.17 44.549h18" style="stroke-linecap:square"/><path fill="#c0392b" stroke="#c0392b" d="M-3 3h6v-6h-6z" style="stroke-linejoin:miter" transform="translate(283.171 44.549)"/><path d="M303.457 43.523V40.86h.809v6.839h-.809v-.739q-.254.44-.644.653-.388.214-.933.214-.892 0-1.453-.712-.56-.713-.56-1.873t.56-1.872q.561-.711 1.453-.711.545 0 .933.213.39.213.644.651m-2.755 1.719q0 .891.368 1.4.367.507 1.008.507t1.01-.508q.37-.508.37-1.4 0-.89-.37-1.398-.369-.508-1.01-.508t-1.008.508-.368 1.399M305.932 42.777h.808v4.922h-.808zm0-1.917h.808v1.025h-.808zM311.284 43.532q-.136-.079-.297-.115-.16-.038-.353-.038-.686 0-1.053.445-.367.446-.367 1.281V47.7h-.813v-4.922h.813v.765q.256-.449.664-.665.409-.218.994-.218.083 0 .184.01t.224.033zM316.14 45.035v.395h-3.718q.053.836.503 1.273t1.255.437q.465 0 .903-.114.437-.113.869-.343v.765q-.436.185-.893.282t-.927.097q-1.178 0-1.866-.685-.688-.687-.688-1.857 0-1.207.653-1.916.652-.71 1.76-.71.993 0 1.571.64.578.638.578 1.736m-.808-.237q-.009-.663-.372-1.058-.363-.397-.96-.397-.677 0-1.083.383-.406.382-.468 1.077zM321.01 42.965v.757q-.344-.19-.688-.284-.345-.095-.696-.095-.788 0-1.224.5-.434.497-.434 1.399 0 .901.434 1.4.436.498 1.224.498.351 0 .696-.094.344-.094.687-.284v.748q-.339.158-.701.236-.362.08-.771.08-1.112 0-1.768-.698-.654-.7-.654-1.886 0-1.204.661-1.893.663-.69 1.814-.69.373 0 .729.077.356.076.69.23M323.215 41.379v1.398h1.665v.628h-1.665v2.672q0 .602.165.774.164.171.67.171h.83v.677h-.83q-.936 0-1.292-.35-.355-.35-.355-1.272v-2.672h-.594v-.628h.594v-1.398zM331.942 42.922v.765q-.342-.176-.711-.263-.369-.089-.765-.089-.602 0-.903.184t-.301.554q0 .282.215.442t.866.305l.277.062q.86.184 1.224.52.363.336.363.938 0 .686-.543 1.087t-1.492.4q-.395 0-.824-.078-.43-.077-.903-.23v-.836q.448.234.883.35.434.116.862.116.57 0 .877-.196.308-.195.308-.551 0-.329-.222-.505-.22-.176-.973-.339l-.281-.066q-.751-.157-1.086-.485-.333-.328-.333-.899 0-.694.492-1.071.492-.378 1.398-.378.447 0 .842.066.397.064.73.197M333.41 45.757v-2.98h.81v2.949q0 .699.27 1.049.274.348.82.348.653 0 1.033-.417.38-.418.38-1.14v-2.79h.81V47.7h-.81v-.757q-.293.449-.682.667t-.903.218q-.848 0-1.288-.528-.44-.527-.44-1.542M343.03 43.722q.304-.546.726-.805.421-.258.992-.258.77 0 1.187.538.418.537.418 1.53V47.7h-.813v-2.945q0-.707-.252-1.05-.25-.342-.763-.342-.629 0-.994.417t-.365 1.138v2.782h-.812v-2.945q0-.712-.25-1.052-.251-.34-.774-.34-.62 0-.986.419-.364.419-.364 1.136v2.782h-.813v-4.922h.813v.765q.277-.453.664-.668.386-.215.918-.215.537 0 .912.272.376.272.556.79M352.768 40.87q-.588 1.01-.875 2-.285.988-.285 2.003 0 1.014.288 2.01t.872 2.002h-.703q-.658-1.033-.986-2.03t-.328-1.982q0-.98.325-1.973.326-.994.989-2.03zM354.372 41.137h1.196l2.91 5.489v-5.489h.86v6.562h-1.196l-2.908-5.489v5.489h-.862zM360.987 45.757v-2.98h.808v2.949q0 .699.272 1.049.272.348.818.348.654 0 1.034-.417.38-.418.38-1.14v-2.79h.81V47.7h-.81v-.757q-.293.449-.683.667-.388.218-.903.218-.848 0-1.288-.528-.438-.527-.438-1.542M370.606 43.722q.303-.546.725-.805.422-.258.993-.258.77 0 1.187.538.418.537.418 1.53V47.7h-.813v-2.945q0-.707-.252-1.05-.25-.342-.764-.342-.628 0-.994.417-.364.417-.364 1.138v2.782h-.813v-2.945q0-.712-.25-1.052t-.774-.34q-.62 0-.985.419t-.365 1.136v2.782h-.812v-4.922h.812v.765q.277-.453.664-.668t.918-.215q.538 0 .913.272.376.272.556.79M376.463 41.867v2.465h1.117q.62 0 .957-.32.34-.321.34-.915 0-.589-.34-.91-.337-.32-.957-.32zm-.887-.73h2.004q1.104 0 1.668.5.565.498.565 1.46 0 .972-.565 1.468-.564.497-1.668.497h-1.117v2.637h-.887zM383.015 48.156q-.341.879-.668 1.146-.324.268-.869.268h-.646v-.676h.475q.333 0 .517-.159.186-.157.41-.747l.144-.368-1.99-4.843h.857l1.538 3.849 1.539-3.85h.856zM386.168 40.87h.703q.658 1.036.985 2.03.328.993.328 1.973 0 .985-.328 1.982-.327.997-.985 2.03h-.703q.583-1.006.871-2.002t.289-2.01q0-1.015-.289-2.003-.288-.99-.871-2"/><defs><clipPath id="timing_pm-pf7eb0fa2e7"><path d="M51.096 3.6h345.96v221.76H51.096z"/></clipPath></defs></svg>